<svg width="21" height="25" viewBox="0 0 21 25" fill="none" xmlns="http://www.w3.org/2000/svg">
<path d="M3.06608 17.216L2.35897 16.5089L3.06608 17.216ZM12.9625 3.79688L12.6226 4.73736L12.9625 3.79688ZM1.24428 19.0378L1.95139 19.7449L1.24428 19.0378ZM12.5849 22.6111L11.6747 22.197L12.5849 22.6111ZM10.4359 25C11.7973 25 12.9683 24.1833 13.4952 23.0252L11.6747 22.197C11.4581 22.6732 10.9789 23 10.4359 23V25ZM11.7949 20.641H9.07693V22.641H11.7949V20.641ZM7.37393 23.0233C7.89829 24.184 9.06678 25 10.4359 25V23C9.88371 23 9.41029 22.673 9.19657 22.1999L7.37393 23.0233ZM18.5128 16.5089V11.0256H16.5128V16.5089H18.5128ZM18.5128 11.0256C18.5128 7.36603 16.6907 4.08081 13.3023 2.8564L12.6226 4.73736C15.042 5.61163 16.5128 8.00387 16.5128 11.0256H18.5128ZM13.2051 2.78117V2.76923H11.2051V2.78117H13.2051ZM13.2051 2.76923C13.2051 1.23797 11.9672 0 10.4359 0V2C10.8626 2 11.2051 2.34254 11.2051 2.76923H13.2051ZM10.4359 0C8.90464 0 7.66667 1.23797 7.66667 2.76923H9.66667C9.66667 2.34254 10.0092 2 10.4359 2V0ZM7.66667 2.76923V2.78053H9.66667V2.76923H7.66667ZM7.56998 2.85518C4.17056 4.07773 2.35897 7.35612 2.35897 11.0256H4.35897C4.35897 7.99091 5.82127 5.60948 8.24682 4.73717L7.56998 2.85518ZM2.35897 11.0256V16.5089H4.35897V11.0256H2.35897ZM2.35897 16.5089L0.537173 18.3307L1.95139 19.7449L3.77319 17.9231L2.35897 16.5089ZM1.83402 21.4615H19.0378V19.4615H1.83402V21.4615ZM20.3346 18.3307L18.5128 16.5089L17.0986 17.9231L18.9204 19.7449L20.3346 18.3307ZM20.8718 19.6275C20.8718 19.1411 20.6786 18.6746 20.3346 18.3307L18.9204 19.7449C18.8893 19.7138 18.8718 19.6715 18.8718 19.6275H20.8718ZM2.35897 16.5089V16.5089L3.77319 17.9231C4.14826 17.548 4.35897 17.0393 4.35897 16.5089H2.35897ZM7.66667 2.78053C7.66667 2.78053 7.66667 2.78049 7.66667 2.7804C7.66667 2.78031 7.66668 2.7802 7.66669 2.78007C7.66672 2.77979 7.66676 2.7795 7.6668 2.77924C7.6669 2.77865 7.66696 2.77864 7.66672 2.77934C7.66623 2.78072 7.66395 2.78645 7.65711 2.79538C7.64212 2.81496 7.61259 2.83985 7.56998 2.85518L8.24682 4.73717C9.01564 4.46067 9.66667 3.73021 9.66667 2.78053H7.66667ZM13.3023 2.8564C13.2595 2.84092 13.2298 2.81586 13.2148 2.79615C13.2079 2.78716 13.2056 2.78139 13.2051 2.78C13.2048 2.77929 13.2049 2.77929 13.205 2.77987C13.205 2.78013 13.2051 2.78042 13.2051 2.7807C13.2051 2.78084 13.2051 2.78095 13.2051 2.78103C13.2051 2.78108 13.2051 2.78111 13.2051 2.78113C13.2051 2.78116 13.2051 2.78117 13.2051 2.78117H11.2051C11.2051 3.73031 11.8554 4.46011 12.6226 4.73736L13.3023 2.8564ZM19.0378 21.4615C20.0507 21.4615 20.8718 20.6404 20.8718 19.6275H18.8718C18.8718 19.5359 18.9461 19.4615 19.0378 19.4615V21.4615ZM16.5128 16.5089C16.5128 17.0393 16.7235 17.548 17.0986 17.9231L18.5128 16.5089H16.5128ZM0 19.6275C0 20.6404 0.821121 21.4615 1.83402 21.4615V19.4615C1.92569 19.4615 2 19.5358 2 19.6275H0ZM9.07693 20.641C8.53148 20.641 7.99561 20.8684 7.63625 21.2789C7.25181 21.7181 7.08043 22.3736 7.37393 23.0233L9.19657 22.1999C9.21976 22.2512 9.23609 22.3319 9.21986 22.423C9.20465 22.5084 9.16772 22.5659 9.14119 22.5962C9.11562 22.6254 9.09546 22.6353 9.08972 22.6378C9.0829 22.6408 9.07909 22.641 9.07693 22.641V20.641ZM0.537173 18.3307C0.193228 18.6746 0 19.1411 0 19.6275H2C2 19.6715 1.98251 19.7138 1.95139 19.7449L0.537173 18.3307ZM13.4952 23.0252C13.7906 22.3757 13.6202 21.7194 13.2357 21.2794C12.8764 20.8684 12.3403 20.641 11.7949 20.641V22.641C11.7927 22.641 11.7888 22.6408 11.7819 22.6377C11.776 22.6351 11.7556 22.6252 11.7299 22.5957C11.7031 22.5651 11.666 22.5071 11.6508 22.4212C11.6347 22.3295 11.6513 22.2484 11.6747 22.197L13.4952 23.0252Z" fill="#65A966"/>
</svg>
