<svg width="382" height="239" viewBox="0 0 382 239" fill="none" xmlns="http://www.w3.org/2000/svg">
<path d="M211.002 84.2088H188.952V91.2851H211.002V84.2088Z" fill="white"/>
<path d="M211.002 91.8475H188.952C188.803 91.8475 188.66 91.7883 188.555 91.6828C188.449 91.5773 188.39 91.4342 188.39 91.285V84.2088C188.39 84.0596 188.449 83.9165 188.555 83.8111C188.66 83.7056 188.803 83.6463 188.952 83.6463H211.002C211.151 83.6492 211.292 83.7094 211.397 83.8142C211.502 83.9191 211.562 84.0605 211.565 84.2088V91.285C211.565 91.4342 211.506 91.5773 211.4 91.6828C211.295 91.7883 211.152 91.8475 211.002 91.8475ZM189.515 90.7225H210.44V84.7713H189.515V90.7225Z" fill="#D1D3D4"/>
<path d="M101.619 123.899H72.6274V237.76H101.619V123.899Z" fill="white"/>
<path d="M101.619 238.322H72.6274C72.4783 238.322 72.3352 238.263 72.2297 238.158C72.1242 238.052 72.0649 237.909 72.0649 237.76V123.899C72.0649 123.75 72.1242 123.606 72.2297 123.501C72.3352 123.396 72.4783 123.336 72.6274 123.336H101.619C101.768 123.336 101.911 123.396 102.016 123.501C102.122 123.606 102.181 123.75 102.181 123.899V237.76C102.181 237.909 102.122 238.052 102.016 238.158C101.911 238.263 101.768 238.322 101.619 238.322ZM73.1899 237.197H101.056V124.461H73.1899V237.197Z" fill="#D1D3D4"/>
<path d="M64.7862 99.79H17.84V122.965H10.1112V237.681H37.1562V139.604H64.7862V99.79Z" fill="white"/>
<path d="M37.1563 238.244H10.1563C10.0071 238.244 9.86399 238.185 9.7585 238.079C9.65301 237.974 9.59375 237.83 9.59375 237.681V122.931C9.59375 122.782 9.65301 122.639 9.7585 122.534C9.86399 122.428 10.0071 122.369 10.1563 122.369H17.3225V99.7563C17.3225 99.6071 17.3818 99.464 17.4873 99.3585C17.5927 99.253 17.7358 99.1938 17.885 99.1938H64.7863C64.9354 99.1938 65.0785 99.253 65.184 99.3585C65.2895 99.464 65.3488 99.6071 65.3488 99.7563V139.581C65.3488 139.73 65.2895 139.874 65.184 139.979C65.0785 140.085 64.9354 140.144 64.7863 140.144H37.7188V237.681C37.7188 237.83 37.6595 237.974 37.554 238.079C37.4485 238.185 37.3054 238.244 37.1563 238.244ZM10.6737 237.119H36.5488V139.581C36.5488 139.432 36.608 139.289 36.7135 139.184C36.819 139.078 36.9621 139.019 37.1113 139.019H64.2238V100.353H18.4025V122.965C18.4025 123.114 18.3432 123.257 18.2377 123.363C18.1323 123.468 17.9892 123.528 17.84 123.528H10.6737V237.119Z" fill="#D1D3D4"/>
<path d="M298.674 150.19L372.957 161.541V237.603H298.674V150.19Z" fill="white"/>
<path d="M372.957 238.165H298.707C298.558 238.165 298.415 238.106 298.31 238C298.204 237.895 298.145 237.752 298.145 237.603V150.19C298.146 150.109 298.163 150.03 298.196 149.956C298.229 149.883 298.277 149.817 298.336 149.763C298.4 149.71 298.474 149.672 298.553 149.65C298.633 149.629 298.716 149.625 298.797 149.639L373.047 160.979C373.18 161.002 373.299 161.072 373.386 161.175C373.472 161.277 373.519 161.407 373.52 161.541V237.603C373.52 237.752 373.461 237.895 373.355 238C373.25 238.106 373.107 238.165 372.957 238.165ZM299.236 237.04H372.361V162.081L299.236 150.899V237.04Z" fill="#D1D3D4"/>
<path d="M225.324 91.2288H175.925V237.681H225.324V91.2288Z" fill="white"/>
<path d="M225.312 238.244H175.925C175.776 238.244 175.633 238.185 175.527 238.079C175.422 237.974 175.362 237.831 175.362 237.681V91.2063C175.362 91.0571 175.422 90.914 175.527 90.8086C175.633 90.7031 175.776 90.6438 175.925 90.6438H225.312C225.462 90.6438 225.605 90.7031 225.71 90.8086C225.816 90.914 225.875 91.0571 225.875 91.2063V237.681C225.875 237.831 225.816 237.974 225.71 238.079C225.605 238.185 225.462 238.244 225.312 238.244ZM176.487 237.119H224.75V91.7913H176.487V237.119Z" fill="#D1D3D4"/>
<path d="M253.37 71.3275H225.312V237.76H253.37V71.3275Z" fill="white"/>
<path d="M253.381 238.323H225.312C225.163 238.323 225.02 238.263 224.915 238.158C224.809 238.052 224.75 237.909 224.75 237.76V71.3275C224.75 71.1783 224.809 71.0353 224.915 70.9298C225.02 70.8243 225.163 70.765 225.312 70.765H253.381C253.53 70.765 253.673 70.8243 253.779 70.9298C253.884 71.0353 253.944 71.1783 253.944 71.3275V237.76C253.944 237.909 253.884 238.052 253.779 238.158C253.673 238.263 253.53 238.323 253.381 238.323ZM225.875 237.198H252.875V71.89H225.875V237.198Z" fill="#D1D3D4"/>
<path d="M150.039 73.105V46.9038H144.301V25.8888H136.077V0.936279H131.521V25.8888H123.286V46.9038H117.549V73.105H112.407V237.096L155.18 237.164V73.105H150.039Z" fill="white"/>
<path d="M155.18 237.726L112.43 237.648C112.281 237.648 112.138 237.588 112.032 237.483C111.927 237.377 111.867 237.234 111.867 237.085V73.105C111.87 72.9568 111.931 72.8153 112.035 72.7105C112.14 72.6056 112.282 72.5454 112.43 72.5425H117.009V46.9038C117.012 46.7555 117.072 46.6141 117.177 46.5092C117.282 46.4044 117.423 46.3442 117.571 46.3413H122.746V25.8888C122.746 25.7396 122.805 25.5965 122.911 25.491C123.016 25.3855 123.16 25.3263 123.309 25.3263H130.981V0.936279C130.981 0.787095 131.04 0.644025 131.146 0.538536C131.251 0.433046 131.395 0.373779 131.544 0.373779H136.1C136.249 0.373779 136.392 0.433046 136.498 0.538536C136.603 0.644025 136.662 0.787095 136.662 0.936279V25.3263H144.324C144.473 25.3263 144.616 25.3855 144.721 25.491C144.827 25.5965 144.886 25.7396 144.886 25.8888V46.3413H150.061C150.21 46.3413 150.353 46.4005 150.459 46.506C150.564 46.6115 150.624 46.7546 150.624 46.9038V72.5425H155.202C155.351 72.5454 155.492 72.6056 155.597 72.7105C155.702 72.8153 155.762 72.9568 155.765 73.105V237.164C155.766 237.239 155.752 237.314 155.723 237.384C155.694 237.453 155.651 237.516 155.596 237.569C155.541 237.622 155.476 237.663 155.404 237.69C155.333 237.718 155.256 237.73 155.18 237.726ZM112.97 236.534L154.595 236.601V73.6675H150.016C149.867 73.6675 149.724 73.6083 149.618 73.5028C149.513 73.3973 149.454 73.2542 149.454 73.105V47.4663H144.279C144.13 47.4663 143.986 47.407 143.881 47.3015C143.775 47.196 143.716 47.053 143.716 46.9038V26.4513H136.055C135.906 26.4513 135.763 26.392 135.657 26.2865C135.552 26.181 135.492 26.038 135.492 25.8888V1.49878H132.061V25.8888C132.061 26.038 132.002 26.181 131.896 26.2865C131.791 26.392 131.648 26.4513 131.499 26.4513H123.826V46.9038C123.826 47.053 123.767 47.196 123.661 47.3015C123.556 47.407 123.413 47.4663 123.264 47.4663H118.089V73.105C118.089 73.2542 118.029 73.3973 117.924 73.5028C117.818 73.6083 117.675 73.6675 117.526 73.6675H112.947L112.97 236.534Z" fill="#D1D3D4"/>
<path d="M81.1775 35.2713H37.1562V41.4026H81.1775V35.2713Z" fill="#65A966"/>
<path d="M81.1775 41.965H37.1562C37.0071 41.965 36.864 41.9058 36.7585 41.8003C36.653 41.6948 36.5938 41.5517 36.5938 41.4026V35.2713C36.5938 35.1221 36.653 34.979 36.7585 34.8736C36.864 34.7681 37.0071 34.7088 37.1562 34.7088H81.1775C81.3258 34.7117 81.4672 34.7719 81.5721 34.8767C81.6769 34.9816 81.7371 35.123 81.74 35.2713V41.4026C81.7371 41.5508 81.6769 41.6922 81.5721 41.7971C81.4672 41.902 81.3258 41.9622 81.1775 41.965ZM37.7188 40.8401H80.615V35.8338H37.7188V40.8401Z" fill="#231F20"/>
<path d="M81.1775 29.1513H40.655V35.2825H81.1775V29.1513Z" fill="#65A966"/>
<path d="M81.1775 35.8337H40.6775C40.5283 35.8337 40.3852 35.7745 40.2797 35.669C40.1743 35.5635 40.115 35.4204 40.115 35.2712V29.1512C40.115 29.0021 40.1743 28.859 40.2797 28.7535C40.3852 28.648 40.5283 28.5887 40.6775 28.5887H81.1775C81.3267 28.5887 81.4698 28.648 81.5752 28.7535C81.6807 28.859 81.74 29.0021 81.74 29.1512V35.2712C81.74 35.4204 81.6807 35.5635 81.5752 35.669C81.4698 35.7745 81.3267 35.8337 81.1775 35.8337ZM41.2175 34.7087H80.5925V29.7137H41.2175V34.7087Z" fill="#231F20"/>
<path d="M81.1775 41.4025H28.9325V237.018H81.1775V41.4025Z" fill="white"/>
<path d="M81.1775 237.58H28.9325C28.7833 237.58 28.6402 237.521 28.5347 237.415C28.4293 237.31 28.37 237.167 28.37 237.017V41.4025C28.37 41.2533 28.4293 41.1103 28.5347 41.0048C28.6402 40.8993 28.7833 40.84 28.9325 40.84H81.1775C81.3267 40.84 81.4698 40.8993 81.5752 41.0048C81.6807 41.1103 81.74 41.2533 81.74 41.4025V237.017C81.7371 237.166 81.6769 237.307 81.5721 237.412C81.4672 237.517 81.3258 237.577 81.1775 237.58ZM29.495 236.455H80.615V41.965H29.495V236.455Z" fill="#231F20"/>
<path d="M81.1775 41.4025H72.6274V237.018H81.1775V41.4025Z" fill="#231F20"/>
<path d="M81.1774 41.4025V237.018H72.6274V41.4025H81.1774ZM81.1774 40.2775H72.6274C72.3291 40.2775 72.0429 40.3961 71.8319 40.607C71.621 40.818 71.5024 41.1042 71.5024 41.4025V237.018C71.5024 237.316 71.621 237.602 71.8319 237.813C72.0429 238.024 72.3291 238.143 72.6274 238.143H81.1774C81.4758 238.143 81.762 238.024 81.9729 237.813C82.1839 237.602 82.3024 237.316 82.3024 237.018V41.4025C82.3024 41.1042 82.1839 40.818 81.9729 40.607C81.762 40.3961 81.4758 40.2775 81.1774 40.2775Z" fill="#231F20"/>
<path d="M72.6275 49.4575H28.9325V54.9363H72.6275V49.4575Z" fill="#65A966"/>
<path d="M72.6275 55.51H28.9325C28.7833 55.51 28.6402 55.4507 28.5347 55.3453C28.4293 55.2398 28.37 55.0967 28.37 54.9475V49.4575C28.37 49.3083 28.4293 49.1653 28.5347 49.0598C28.6402 48.9543 28.7833 48.895 28.9325 48.895H72.6275C72.7767 48.895 72.9198 48.9543 73.0253 49.0598C73.1307 49.1653 73.19 49.3083 73.19 49.4575V54.9475C73.19 55.0967 73.1307 55.2398 73.0253 55.3453C72.9198 55.4507 72.7767 55.51 72.6275 55.51ZM29.495 54.385H72.065V50.02H29.495V54.385Z" fill="#231F20"/>
<path d="M72.6275 66.7038H28.9325V72.1825H72.6275V66.7038Z" fill="#65A966"/>
<path d="M72.6275 72.745H28.9325C28.7833 72.745 28.6402 72.6858 28.5347 72.5803C28.4293 72.4748 28.37 72.3317 28.37 72.1825V66.7038C28.37 66.5546 28.4293 66.4115 28.5347 66.306C28.6402 66.2006 28.7833 66.1413 28.9325 66.1413H72.6275C72.7767 66.1413 72.9198 66.2006 73.0253 66.306C73.1307 66.4115 73.19 66.5546 73.19 66.7038V72.1825C73.19 72.3317 73.1307 72.4748 73.0253 72.5803C72.9198 72.6858 72.7767 72.745 72.6275 72.745ZM29.495 71.62H72.065V67.2663H29.495V71.62Z" fill="#231F20"/>
<path d="M72.6275 83.9388H28.9325V89.4175H72.6275V83.9388Z" fill="#65A966"/>
<path d="M72.6275 89.98H28.9325C28.7833 89.98 28.6402 89.9208 28.5347 89.8153C28.4293 89.7098 28.37 89.5667 28.37 89.4175V83.9388C28.37 83.7896 28.4293 83.6465 28.5347 83.541C28.6402 83.4355 28.7833 83.3763 28.9325 83.3763H72.6275C72.7767 83.3763 72.9198 83.4355 73.0253 83.541C73.1307 83.6465 73.19 83.7896 73.19 83.9388V89.4175C73.19 89.5667 73.1307 89.7098 73.0253 89.8153C72.9198 89.9208 72.7767 89.98 72.6275 89.98ZM29.495 88.855H72.065V84.4563H29.495V88.855Z" fill="#231F20"/>
<path d="M72.6275 101.174H28.9325V106.652H72.6275V101.174Z" fill="#65A966"/>
<path d="M72.6275 107.226H28.9325C28.7833 107.226 28.6402 107.167 28.5347 107.062C28.4293 106.956 28.37 106.813 28.37 106.664V101.174C28.37 101.025 28.4293 100.882 28.5347 100.776C28.6402 100.671 28.7833 100.611 28.9325 100.611H72.6275C72.7767 100.611 72.9198 100.671 73.0253 100.776C73.1307 100.882 73.19 101.025 73.19 101.174V106.664C73.19 106.813 73.1307 106.956 73.0253 107.062C72.9198 107.167 72.7767 107.226 72.6275 107.226ZM29.495 106.101H72.065V101.736H29.495V106.101Z" fill="#231F20"/>
<path d="M72.6275 118.42H28.9325V123.899H72.6275V118.42Z" fill="#65A966"/>
<path d="M72.6275 124.461H28.9325C28.7833 124.461 28.6402 124.402 28.5347 124.297C28.4293 124.191 28.37 124.048 28.37 123.899V118.42C28.37 118.271 28.4293 118.128 28.5347 118.022C28.6402 117.917 28.7833 117.858 28.9325 117.858H72.6275C72.7767 117.858 72.9198 117.917 73.0253 118.022C73.1307 118.128 73.19 118.271 73.19 118.42V123.899C73.19 124.048 73.1307 124.191 73.0253 124.297C72.9198 124.402 72.7767 124.461 72.6275 124.461ZM29.495 123.336H72.065V118.983H29.495V123.336Z" fill="#231F20"/>
<path d="M72.6275 135.655H28.9325V141.134H72.6275V135.655Z" fill="#65A966"/>
<path d="M72.6275 141.696H28.9325C28.7833 141.696 28.6402 141.637 28.5347 141.532C28.4293 141.426 28.37 141.283 28.37 141.134V135.655C28.37 135.506 28.4293 135.363 28.5347 135.257C28.6402 135.152 28.7833 135.093 28.9325 135.093H72.6275C72.7767 135.093 72.9198 135.152 73.0253 135.257C73.1307 135.363 73.19 135.506 73.19 135.655V141.134C73.19 141.283 73.1307 141.426 73.0253 141.532C72.9198 141.637 72.7767 141.696 72.6275 141.696ZM29.495 140.571H72.065V136.206H29.495V140.571Z" fill="#231F20"/>
<path d="M72.6275 152.89H28.9325V158.369H72.6275V152.89Z" fill="#65A966"/>
<path d="M72.6275 158.943H28.9325C28.7833 158.943 28.6402 158.883 28.5347 158.778C28.4293 158.672 28.37 158.529 28.37 158.38V152.89C28.37 152.741 28.4293 152.598 28.5347 152.492C28.6402 152.387 28.7833 152.328 28.9325 152.328H72.6275C72.7767 152.328 72.9198 152.387 73.0253 152.492C73.1307 152.598 73.19 152.741 73.19 152.89V158.38C73.19 158.529 73.1307 158.672 73.0253 158.778C72.9198 158.883 72.7767 158.943 72.6275 158.943ZM29.495 157.818H72.065V153.453H29.495V157.818Z" fill="#231F20"/>
<path d="M72.6275 170.136H28.9325V175.615H72.6275V170.136Z" fill="#65A966"/>
<path d="M72.6275 176.178H28.9325C28.7833 176.178 28.6402 176.118 28.5347 176.013C28.4293 175.907 28.37 175.764 28.37 175.615V170.136C28.37 169.987 28.4293 169.844 28.5347 169.739C28.6402 169.633 28.7833 169.574 28.9325 169.574H72.6275C72.7767 169.574 72.9198 169.633 73.0252 169.739C73.1307 169.844 73.19 169.987 73.19 170.136V175.581C73.1946 175.658 73.1835 175.735 73.1573 175.807C73.1311 175.879 73.0904 175.945 73.0377 176.001C72.985 176.057 72.9214 176.101 72.8508 176.132C72.7803 176.162 72.7043 176.178 72.6275 176.178ZM29.495 175.053H72.065V170.699H29.495V175.053Z" fill="#231F20"/>
<path d="M72.6275 187.371H28.9325V192.85H72.6275V187.371Z" fill="#65A966"/>
<path d="M72.6275 193.413H28.9325C28.7833 193.413 28.6402 193.353 28.5347 193.248C28.4293 193.142 28.37 192.999 28.37 192.85V187.371C28.37 187.222 28.4293 187.079 28.5347 186.974C28.6402 186.868 28.7833 186.809 28.9325 186.809H72.6275C72.7767 186.809 72.9198 186.868 73.0253 186.974C73.1307 187.079 73.19 187.222 73.19 187.371V192.85C73.19 192.999 73.1307 193.142 73.0253 193.248C72.9198 193.353 72.7767 193.413 72.6275 193.413ZM29.495 192.288H72.065V187.956H29.495V192.288Z" fill="#231F20"/>
<path d="M72.6275 204.606H28.9325V210.085H72.6275V204.606Z" fill="#65A966"/>
<path d="M72.6275 210.659H28.9325C28.7833 210.659 28.6402 210.6 28.5347 210.494C28.4293 210.389 28.37 210.245 28.37 210.096V204.606C28.37 204.457 28.4293 204.314 28.5347 204.209C28.6402 204.103 28.7833 204.044 28.9325 204.044H72.6275C72.7767 204.044 72.9198 204.103 73.0253 204.209C73.1307 204.314 73.19 204.457 73.19 204.606V210.096C73.19 210.245 73.1307 210.389 73.0253 210.494C72.9198 210.6 72.7767 210.659 72.6275 210.659ZM29.495 209.534H72.065V205.169H29.495V209.534Z" fill="#231F20"/>
<path d="M72.6275 221.853H28.9325V227.331H72.6275V221.853Z" fill="#65A966"/>
<path d="M72.6275 227.894H28.9325C28.7833 227.894 28.6402 227.835 28.5347 227.729C28.4293 227.624 28.37 227.48 28.37 227.331V221.853C28.37 221.703 28.4293 221.56 28.5347 221.455C28.6402 221.349 28.7833 221.29 28.9325 221.29H72.6275C72.7767 221.29 72.9198 221.349 73.0253 221.455C73.1307 221.56 73.19 221.703 73.19 221.853V227.331C73.19 227.48 73.1307 227.624 73.0253 227.729C72.9198 227.835 72.7767 227.894 72.6275 227.894ZM29.495 226.769H72.065V222.415H29.495V226.769Z" fill="#231F20"/>
<path d="M186.511 171.149H98.6037V174.389H186.511V171.149Z" fill="white"/>
<path d="M186.5 174.951H98.6038C98.4546 174.951 98.3115 174.892 98.206 174.787C98.1005 174.681 98.0413 174.538 98.0413 174.389V171.149C98.0413 171 98.1005 170.857 98.206 170.751C98.3115 170.646 98.4546 170.586 98.6038 170.586H186.5C186.649 170.586 186.792 170.646 186.898 170.751C187.003 170.857 187.062 171 187.062 171.149V174.389C187.062 174.538 187.003 174.681 186.898 174.787C186.792 174.892 186.649 174.951 186.5 174.951ZM99.155 173.826H185.938V171.711H99.1663L99.155 173.826Z" fill="#231F20"/>
<path d="M192.822 175.795H92.2812V237.006H192.822V175.795Z" fill="#231F20"/>
<path d="M192.823 175.795V237.018H92.2813V175.795H192.823ZM192.823 174.67H92.2813C91.9829 174.67 91.6967 174.789 91.4858 175C91.2748 175.211 91.1562 175.497 91.1562 175.795V237.018C91.1562 237.316 91.2748 237.602 91.4858 237.813C91.6967 238.024 91.9829 238.143 92.2813 238.143H192.823C193.121 238.143 193.407 238.024 193.618 237.813C193.829 237.602 193.948 237.316 193.948 237.018V175.795C193.948 175.497 193.829 175.211 193.618 175C193.407 174.789 193.121 174.67 192.823 174.67Z" fill="#231F20"/>
<path d="M192.822 184.941H92.2812V190.443H192.822V184.941Z" fill="#65A966"/>
<path d="M192.822 191.005H92.2812C92.132 191.005 91.9889 190.946 91.8834 190.84C91.778 190.735 91.7187 190.592 91.7187 190.443V184.941C91.7187 184.792 91.778 184.649 91.8834 184.544C91.9889 184.438 92.132 184.379 92.2812 184.379H192.822C192.972 184.379 193.115 184.438 193.22 184.544C193.326 184.649 193.385 184.792 193.385 184.941V190.443C193.385 190.592 193.326 190.735 193.22 190.84C193.115 190.946 192.972 191.005 192.822 191.005ZM92.8437 189.88H192.26V185.504H92.8437V189.88Z" fill="#231F20"/>
<path d="M99.875 191.005C99.7258 191.005 99.5827 190.946 99.4773 190.84C99.3718 190.735 99.3125 190.592 99.3125 190.443V184.941C99.3125 184.792 99.3718 184.649 99.4773 184.544C99.5827 184.438 99.7258 184.379 99.875 184.379C100.024 184.379 100.167 184.438 100.273 184.544C100.378 184.649 100.438 184.792 100.438 184.941V190.443C100.438 190.592 100.378 190.735 100.273 190.84C100.167 190.946 100.024 191.005 99.875 191.005Z" fill="#231F20"/>
<path d="M108.324 184.941H107.199V190.443H108.324V184.941Z" fill="#231F20"/>
<path d="M116.187 184.941H115.062V190.443H116.187V184.941Z" fill="#231F20"/>
<path d="M124.051 184.941H122.926V190.443H124.051V184.941Z" fill="#231F20"/>
<path d="M131.915 184.941H130.79V190.443H131.915V184.941Z" fill="#231F20"/>
<path d="M139.79 184.941H138.665V190.443H139.79V184.941Z" fill="#231F20"/>
<path d="M147.654 184.941H146.529V190.443H147.654V184.941Z" fill="#231F20"/>
<path d="M155.517 184.941H154.392V190.443H155.517V184.941Z" fill="#231F20"/>
<path d="M163.381 184.941H162.256V190.443H163.381V184.941Z" fill="#231F20"/>
<path d="M171.245 184.941H170.12V190.443H171.245V184.941Z" fill="#231F20"/>
<path d="M179.109 184.941H177.984V190.443H179.109V184.941Z" fill="#231F20"/>
<path d="M186.972 184.941H185.847V190.443H186.972V184.941Z" fill="#231F20"/>
<path d="M192.822 197.418H92.2812V202.919H192.822V197.418Z" fill="#65A966"/>
<path d="M192.822 203.481H92.2812C92.132 203.481 91.9889 203.422 91.8834 203.317C91.778 203.211 91.7187 203.068 91.7187 202.919V197.418C91.7187 197.268 91.778 197.125 91.8834 197.02C91.9889 196.914 92.132 196.855 92.2812 196.855H192.822C192.972 196.855 193.115 196.914 193.22 197.02C193.326 197.125 193.385 197.268 193.385 197.418V202.919C193.385 203.068 193.326 203.211 193.22 203.317C193.115 203.422 192.972 203.481 192.822 203.481ZM92.8437 202.356H192.26V197.98H92.8437V202.356Z" fill="#231F20"/>
<path d="M99.875 203.481C99.7258 203.481 99.5827 203.422 99.4773 203.317C99.3718 203.211 99.3125 203.068 99.3125 202.919V197.418C99.3125 197.268 99.3718 197.125 99.4773 197.02C99.5827 196.914 99.7258 196.855 99.875 196.855C100.024 196.855 100.167 196.914 100.273 197.02C100.378 197.125 100.438 197.268 100.438 197.418V202.919C100.438 203.068 100.378 203.211 100.273 203.317C100.167 203.422 100.024 203.481 99.875 203.481Z" fill="#231F20"/>
<path d="M108.324 197.418H107.199V202.919H108.324V197.418Z" fill="#231F20"/>
<path d="M116.187 197.418H115.062V202.919H116.187V197.418Z" fill="#231F20"/>
<path d="M124.051 197.418H122.926V202.919H124.051V197.418Z" fill="#231F20"/>
<path d="M131.915 197.418H130.79V202.919H131.915V197.418Z" fill="#231F20"/>
<path d="M139.79 197.418H138.665V202.919H139.79V197.418Z" fill="#231F20"/>
<path d="M147.654 197.418H146.529V202.919H147.654V197.418Z" fill="#231F20"/>
<path d="M155.517 197.418H154.392V202.919H155.517V197.418Z" fill="#231F20"/>
<path d="M163.381 197.418H162.256V202.919H163.381V197.418Z" fill="#231F20"/>
<path d="M171.245 197.418H170.12V202.919H171.245V197.418Z" fill="#231F20"/>
<path d="M179.109 197.418H177.984V202.919H179.109V197.418Z" fill="#231F20"/>
<path d="M186.972 197.418H185.847V202.919H186.972V197.418Z" fill="#231F20"/>
<path d="M192.822 209.894H92.2812V215.395H192.822V209.894Z" fill="#65A966"/>
<path d="M192.822 215.958H92.2812C92.132 215.958 91.9889 215.898 91.8834 215.793C91.778 215.687 91.7187 215.544 91.7187 215.395V209.894C91.7187 209.745 91.778 209.602 91.8834 209.496C91.9889 209.391 92.132 209.331 92.2812 209.331H192.822C192.972 209.331 193.115 209.391 193.22 209.496C193.326 209.602 193.385 209.745 193.385 209.894V215.395C193.385 215.544 193.326 215.687 193.22 215.793C193.115 215.898 192.972 215.958 192.822 215.958ZM92.8437 214.833H192.26V210.456H92.8437V214.833Z" fill="#231F20"/>
<path d="M99.875 215.958C99.7258 215.958 99.5827 215.898 99.4773 215.793C99.3718 215.687 99.3125 215.544 99.3125 215.395V209.894C99.3125 209.745 99.3718 209.602 99.4773 209.496C99.5827 209.391 99.7258 209.331 99.875 209.331C100.024 209.331 100.167 209.391 100.273 209.496C100.378 209.602 100.438 209.745 100.438 209.894V215.395C100.438 215.544 100.378 215.687 100.273 215.793C100.167 215.898 100.024 215.958 99.875 215.958Z" fill="#231F20"/>
<path d="M108.324 209.894H107.199V215.395H108.324V209.894Z" fill="#231F20"/>
<path d="M116.187 209.894H115.062V215.395H116.187V209.894Z" fill="#231F20"/>
<path d="M124.051 209.894H122.926V215.395H124.051V209.894Z" fill="#231F20"/>
<path d="M131.915 209.894H130.79V215.395H131.915V209.894Z" fill="#231F20"/>
<path d="M139.79 209.894H138.665V215.395H139.79V209.894Z" fill="#231F20"/>
<path d="M147.654 209.894H146.529V215.395H147.654V209.894Z" fill="#231F20"/>
<path d="M155.517 209.894H154.392V215.395H155.517V209.894Z" fill="#231F20"/>
<path d="M163.381 209.894H162.256V215.395H163.381V209.894Z" fill="#231F20"/>
<path d="M171.245 209.894H170.12V215.395H171.245V209.894Z" fill="#231F20"/>
<path d="M179.109 209.894H177.984V215.395H179.109V209.894Z" fill="#231F20"/>
<path d="M186.972 209.894H185.847V215.395H186.972V209.894Z" fill="#231F20"/>
<path d="M192.822 222.37H92.2812V227.871H192.822V222.37Z" fill="#65A966"/>
<path d="M192.822 228.456H92.2812C92.132 228.456 91.9889 228.397 91.8834 228.292C91.778 228.186 91.7187 228.043 91.7187 227.894V222.393C91.7187 222.243 91.778 222.1 91.8834 221.995C91.9889 221.889 92.132 221.83 92.2812 221.83H192.822C192.972 221.83 193.115 221.889 193.22 221.995C193.326 222.1 193.385 222.243 193.385 222.393V227.894C193.385 228.043 193.326 228.186 193.22 228.292C193.115 228.397 192.972 228.456 192.822 228.456ZM92.8437 227.331H192.26V222.955H92.8437V227.331Z" fill="#231F20"/>
<path d="M99.875 228.456C99.7258 228.456 99.5827 228.397 99.4773 228.292C99.3718 228.186 99.3125 228.043 99.3125 227.894V222.393C99.3125 222.243 99.3718 222.1 99.4773 221.995C99.5827 221.889 99.7258 221.83 99.875 221.83C100.024 221.83 100.167 221.889 100.273 221.995C100.378 222.1 100.438 222.243 100.438 222.393V227.894C100.438 228.043 100.378 228.186 100.273 228.292C100.167 228.397 100.024 228.456 99.875 228.456Z" fill="#231F20"/>
<path d="M108.324 222.37H107.199V227.871H108.324V222.37Z" fill="#231F20"/>
<path d="M116.187 222.37H115.062V227.871H116.187V222.37Z" fill="#231F20"/>
<path d="M124.051 222.37H122.926V227.871H124.051V222.37Z" fill="#231F20"/>
<path d="M131.915 222.37H130.79V227.871H131.915V222.37Z" fill="#231F20"/>
<path d="M139.79 222.37H138.665V227.871H139.79V222.37Z" fill="#231F20"/>
<path d="M147.654 222.37H146.529V227.871H147.654V222.37Z" fill="#231F20"/>
<path d="M155.517 222.37H154.392V227.871H155.517V222.37Z" fill="#231F20"/>
<path d="M163.381 222.37H162.256V227.871H163.381V222.37Z" fill="#231F20"/>
<path d="M171.245 222.37H170.12V227.871H171.245V222.37Z" fill="#231F20"/>
<path d="M179.109 222.37H177.984V227.871H179.109V222.37Z" fill="#231F20"/>
<path d="M186.972 222.37H185.847V227.871H186.972V222.37Z" fill="#231F20"/>
<path d="M354.811 65.4438H308.63V237.018H354.811V65.4438Z" fill="white"/>
<path d="M354.811 237.58H308.63C308.481 237.58 308.338 237.521 308.232 237.415C308.127 237.31 308.067 237.167 308.067 237.018V65.4438C308.067 65.2946 308.127 65.1515 308.232 65.046C308.338 64.9405 308.481 64.8813 308.63 64.8813H354.811C354.96 64.8813 355.104 64.9405 355.209 65.046C355.314 65.1515 355.374 65.2946 355.374 65.4438V237.018C355.374 237.167 355.314 237.31 355.209 237.415C355.104 237.521 354.96 237.58 354.811 237.58ZM309.192 236.455H354.249V66.0063H309.192V236.455Z" fill="#231F20"/>
<path d="M347.51 65.9725H315.942V206.508H347.51V65.9725Z" fill="#65A966"/>
<path d="M347.499 207.081H315.942C315.793 207.081 315.65 207.022 315.545 206.917C315.439 206.811 315.38 206.668 315.38 206.519V65.9725C315.38 65.8233 315.439 65.6803 315.545 65.5748C315.65 65.4693 315.793 65.41 315.942 65.41H347.499C347.648 65.41 347.791 65.4693 347.896 65.5748C348.002 65.6803 348.061 65.8233 348.061 65.9725V206.496C348.064 206.572 348.052 206.648 348.025 206.718C347.998 206.789 347.957 206.854 347.905 206.909C347.852 206.963 347.789 207.007 347.719 207.036C347.65 207.066 347.574 207.081 347.499 207.081ZM316.505 205.956H346.936V66.535H316.505V205.956Z" fill="#231F20"/>
<path d="M315.943 65.4438H308.63V237.018H315.943V65.4438Z" fill="white"/>
<path d="M315.942 237.58H308.63C308.481 237.58 308.338 237.521 308.232 237.415C308.127 237.31 308.067 237.167 308.067 237.018V65.4438C308.067 65.2946 308.127 65.1515 308.232 65.046C308.338 64.9405 308.481 64.8813 308.63 64.8813H315.942C316.092 64.8813 316.235 64.9405 316.34 65.046C316.446 65.1515 316.505 65.2946 316.505 65.4438V237.018C316.502 237.166 316.442 237.307 316.337 237.412C316.232 237.517 316.091 237.577 315.942 237.58ZM309.192 236.455H315.38V66.0063H309.192V236.455Z" fill="#231F20"/>
<path d="M354.811 65.4438H347.499V237.018H354.811V65.4438Z" fill="white"/>
<path d="M354.811 237.58H347.499C347.35 237.577 347.209 237.517 347.104 237.412C346.999 237.307 346.939 237.166 346.936 237.018V65.4438C346.936 65.2946 346.995 65.1515 347.101 65.046C347.206 64.9405 347.35 64.8813 347.499 64.8813H354.811C354.96 64.8813 355.104 64.9405 355.209 65.046C355.314 65.1515 355.374 65.2946 355.374 65.4438V237.018C355.374 237.167 355.314 237.31 355.209 237.415C355.104 237.521 354.96 237.58 354.811 237.58ZM348.061 236.455H354.249V66.0063H348.061V236.455Z" fill="#231F20"/>
<path d="M347.499 73.6675H315.942C315.793 73.6675 315.65 73.6083 315.545 73.5028C315.439 73.3973 315.38 73.2542 315.38 73.105C315.38 72.9559 315.439 72.8128 315.545 72.7073C315.65 72.6018 315.793 72.5425 315.942 72.5425H347.499C347.648 72.5425 347.791 72.6018 347.896 72.7073C348.002 72.8128 348.061 72.9559 348.061 73.105C348.061 73.2542 348.002 73.3973 347.896 73.5028C347.791 73.6083 347.648 73.6675 347.499 73.6675Z" fill="#231F20"/>
<path d="M347.499 80.3388H315.942C315.793 80.3388 315.65 80.2795 315.545 80.174C315.439 80.0686 315.38 79.9255 315.38 79.7763C315.38 79.6271 315.439 79.4841 315.545 79.3786C315.65 79.2731 315.793 79.2138 315.942 79.2138H347.499C347.648 79.2138 347.791 79.2731 347.896 79.3786C348.002 79.4841 348.061 79.6271 348.061 79.7763C348.061 79.9255 348.002 80.0686 347.896 80.174C347.791 80.2795 347.648 80.3388 347.499 80.3388Z" fill="#231F20"/>
<path d="M347.499 87.01H315.942C315.793 87.01 315.65 86.9507 315.545 86.8453C315.439 86.7398 315.38 86.5967 315.38 86.4475C315.38 86.2983 315.439 86.1553 315.545 86.0498C315.65 85.9443 315.793 85.885 315.942 85.885H347.499C347.648 85.885 347.791 85.9443 347.896 86.0498C348.002 86.1553 348.061 86.2983 348.061 86.4475C348.061 86.5967 348.002 86.7398 347.896 86.8453C347.791 86.9507 347.648 87.01 347.499 87.01Z" fill="#231F20"/>
<path d="M347.499 93.6813H315.942C315.793 93.6813 315.65 93.622 315.545 93.5165C315.439 93.411 315.38 93.268 315.38 93.1188C315.38 92.9696 315.439 92.8265 315.545 92.721C315.65 92.6155 315.793 92.5563 315.942 92.5563H347.499C347.648 92.5563 347.791 92.6155 347.896 92.721C348.002 92.8265 348.061 92.9696 348.061 93.1188C348.061 93.268 348.002 93.411 347.896 93.5165C347.791 93.622 347.648 93.6813 347.499 93.6813Z" fill="#231F20"/>
<path d="M347.499 100.353H315.942C315.793 100.353 315.65 100.293 315.545 100.188C315.439 100.082 315.38 99.9392 315.38 99.79C315.38 99.6409 315.439 99.4978 315.545 99.3923C315.65 99.2868 315.793 99.2275 315.942 99.2275H347.499C347.648 99.2275 347.791 99.2868 347.896 99.3923C348.002 99.4978 348.061 99.6409 348.061 99.79C348.061 99.9392 348.002 100.082 347.896 100.188C347.791 100.293 347.648 100.353 347.499 100.353Z" fill="#231F20"/>
<path d="M347.499 107.024H315.942C315.793 107.024 315.65 106.965 315.545 106.859C315.439 106.754 315.38 106.61 315.38 106.461C315.38 106.312 315.439 106.169 315.545 106.064C315.65 105.958 315.793 105.899 315.942 105.899H347.499C347.648 105.899 347.791 105.958 347.896 106.064C348.002 106.169 348.061 106.312 348.061 106.461C348.061 106.61 348.002 106.754 347.896 106.859C347.791 106.965 347.648 107.024 347.499 107.024Z" fill="#231F20"/>
<path d="M347.499 113.706H315.942C315.793 113.706 315.65 113.647 315.545 113.542C315.439 113.436 315.38 113.293 315.38 113.144C315.38 112.995 315.439 112.852 315.545 112.746C315.65 112.641 315.793 112.581 315.942 112.581H347.499C347.648 112.581 347.791 112.641 347.896 112.746C348.002 112.852 348.061 112.995 348.061 113.144C348.061 113.293 348.002 113.436 347.896 113.542C347.791 113.647 347.648 113.706 347.499 113.706Z" fill="#231F20"/>
<path d="M347.499 120.355H315.942C315.793 120.355 315.65 120.296 315.545 120.19C315.439 120.085 315.38 119.942 315.38 119.793C315.38 119.643 315.439 119.5 315.545 119.395C315.65 119.289 315.793 119.23 315.942 119.23H347.499C347.648 119.23 347.791 119.289 347.896 119.395C348.002 119.5 348.061 119.643 348.061 119.793C348.061 119.942 348.002 120.085 347.896 120.19C347.791 120.296 347.648 120.355 347.499 120.355Z" fill="#231F20"/>
<path d="M347.499 127.026H315.942C315.793 127.026 315.65 126.967 315.545 126.862C315.439 126.756 315.38 126.613 315.38 126.464C315.38 126.315 315.439 126.172 315.545 126.066C315.65 125.961 315.793 125.901 315.942 125.901H347.499C347.648 125.901 347.791 125.961 347.896 126.066C348.002 126.172 348.061 126.315 348.061 126.464C348.061 126.613 348.002 126.756 347.896 126.862C347.791 126.967 347.648 127.026 347.499 127.026Z" fill="#231F20"/>
<path d="M347.499 133.698H315.942C315.793 133.698 315.65 133.638 315.545 133.533C315.439 133.427 315.38 133.284 315.38 133.135C315.38 132.986 315.439 132.843 315.545 132.737C315.65 132.632 315.793 132.573 315.942 132.573H347.499C347.648 132.573 347.791 132.632 347.896 132.737C348.002 132.843 348.061 132.986 348.061 133.135C348.061 133.284 348.002 133.427 347.896 133.533C347.791 133.638 347.648 133.698 347.499 133.698Z" fill="#231F20"/>
<path d="M347.499 140.369H315.942C315.793 140.369 315.65 140.31 315.545 140.204C315.439 140.099 315.38 139.955 315.38 139.806C315.38 139.657 315.439 139.514 315.545 139.409C315.65 139.303 315.793 139.244 315.942 139.244H347.499C347.648 139.244 347.791 139.303 347.896 139.409C348.002 139.514 348.061 139.657 348.061 139.806C348.061 139.955 348.002 140.099 347.896 140.204C347.791 140.31 347.648 140.369 347.499 140.369Z" fill="#231F20"/>
<path d="M347.499 147.04H315.942C315.793 147.04 315.65 146.981 315.545 146.875C315.439 146.77 315.38 146.627 315.38 146.478C315.38 146.328 315.439 146.185 315.545 146.08C315.65 145.974 315.793 145.915 315.942 145.915H347.499C347.648 145.915 347.791 145.974 347.896 146.08C348.002 146.185 348.061 146.328 348.061 146.478C348.061 146.627 348.002 146.77 347.896 146.875C347.791 146.981 347.648 147.04 347.499 147.04Z" fill="#231F20"/>
<path d="M347.499 153.7H315.942C315.793 153.7 315.65 153.641 315.545 153.535C315.439 153.43 315.38 153.287 315.38 153.138C315.38 152.988 315.439 152.845 315.545 152.74C315.65 152.634 315.793 152.575 315.942 152.575H347.499C347.648 152.575 347.791 152.634 347.896 152.74C348.002 152.845 348.061 152.988 348.061 153.138C348.061 153.287 348.002 153.43 347.896 153.535C347.791 153.641 347.648 153.7 347.499 153.7Z" fill="#231F20"/>
<path d="M347.499 160.371H315.942C315.793 160.371 315.65 160.312 315.545 160.207C315.439 160.101 315.38 159.958 315.38 159.809C315.38 159.66 315.439 159.517 315.545 159.411C315.65 159.306 315.793 159.246 315.942 159.246H347.499C347.648 159.246 347.791 159.306 347.896 159.411C348.002 159.517 348.061 159.66 348.061 159.809C348.061 159.958 348.002 160.101 347.896 160.207C347.791 160.312 347.648 160.371 347.499 160.371Z" fill="#231F20"/>
<path d="M347.499 167.043H315.942C315.793 167.043 315.65 166.983 315.545 166.878C315.439 166.772 315.38 166.629 315.38 166.48C315.38 166.331 315.439 166.188 315.545 166.082C315.65 165.977 315.793 165.918 315.942 165.918H347.499C347.648 165.918 347.791 165.977 347.896 166.082C348.002 166.188 348.061 166.331 348.061 166.48C348.061 166.629 348.002 166.772 347.896 166.878C347.791 166.983 347.648 167.043 347.499 167.043Z" fill="#231F20"/>
<path d="M347.499 173.714H315.942C315.793 173.714 315.65 173.655 315.545 173.549C315.439 173.444 315.38 173.3 315.38 173.151C315.38 173.002 315.439 172.859 315.545 172.754C315.65 172.648 315.793 172.589 315.942 172.589H347.499C347.648 172.589 347.791 172.648 347.896 172.754C348.002 172.859 348.061 173.002 348.061 173.151C348.061 173.3 348.002 173.444 347.896 173.549C347.791 173.655 347.648 173.714 347.499 173.714Z" fill="#231F20"/>
<path d="M347.499 180.385H315.942C315.793 180.385 315.65 180.326 315.545 180.22C315.439 180.115 315.38 179.972 315.38 179.823C315.38 179.673 315.439 179.53 315.545 179.425C315.65 179.319 315.793 179.26 315.942 179.26H347.499C347.648 179.26 347.791 179.319 347.896 179.425C348.002 179.53 348.061 179.673 348.061 179.823C348.061 179.972 348.002 180.115 347.896 180.22C347.791 180.326 347.648 180.385 347.499 180.385Z" fill="#231F20"/>
<path d="M347.499 187.056H315.942C315.793 187.056 315.65 186.997 315.545 186.892C315.439 186.786 315.38 186.643 315.38 186.494C315.38 186.345 315.439 186.202 315.545 186.096C315.65 185.991 315.793 185.931 315.942 185.931H347.499C347.648 185.931 347.791 185.991 347.896 186.096C348.002 186.202 348.061 186.345 348.061 186.494C348.061 186.643 348.002 186.786 347.896 186.892C347.791 186.997 347.648 187.056 347.499 187.056Z" fill="#231F20"/>
<path d="M347.499 193.716H315.942C315.793 193.716 315.65 193.657 315.545 193.552C315.439 193.446 315.38 193.303 315.38 193.154C315.38 193.005 315.439 192.862 315.545 192.756C315.65 192.651 315.793 192.591 315.942 192.591H347.499C347.648 192.591 347.791 192.651 347.896 192.756C348.002 192.862 348.061 193.005 348.061 193.154C348.061 193.303 348.002 193.446 347.896 193.552C347.791 193.657 347.648 193.716 347.499 193.716Z" fill="#231F20"/>
<path d="M347.499 200.388H315.942C315.793 200.388 315.65 200.328 315.545 200.223C315.439 200.117 315.38 199.974 315.38 199.825C315.38 199.676 315.439 199.533 315.545 199.427C315.65 199.322 315.793 199.263 315.942 199.263H347.499C347.648 199.263 347.791 199.322 347.896 199.427C348.002 199.533 348.061 199.676 348.061 199.825C348.061 199.974 348.002 200.117 347.896 200.223C347.791 200.328 347.648 200.388 347.499 200.388Z" fill="#231F20"/>
<path d="M347.499 207.081H315.942C315.793 207.081 315.65 207.022 315.545 206.917C315.439 206.811 315.38 206.668 315.38 206.519C315.38 206.37 315.439 206.227 315.545 206.121C315.65 206.016 315.793 205.956 315.942 205.956H347.499C347.648 205.956 347.791 206.016 347.896 206.121C348.002 206.227 348.061 206.37 348.061 206.519C348.061 206.668 348.002 206.811 347.896 206.917C347.791 207.022 347.648 207.081 347.499 207.081Z" fill="#231F20"/>
<path d="M315.943 65.4438H308.63V237.018H315.943V65.4438Z" fill="white"/>
<path d="M315.942 237.58H308.63C308.481 237.58 308.338 237.521 308.232 237.415C308.127 237.31 308.067 237.167 308.067 237.018V65.4438C308.067 65.2946 308.127 65.1515 308.232 65.046C308.338 64.9405 308.481 64.8813 308.63 64.8813H315.942C316.092 64.8813 316.235 64.9405 316.34 65.046C316.446 65.1515 316.505 65.2946 316.505 65.4438V237.018C316.502 237.166 316.442 237.307 316.337 237.412C316.232 237.517 316.091 237.577 315.942 237.58ZM309.192 236.455H315.38V66.0063H309.192V236.455Z" fill="#231F20"/>
<path d="M347.51 206.496H315.942V237.006H347.51V206.496Z" fill="#231F20"/>
<path d="M230.285 128.86H208.46V237.006H230.285V128.86Z" fill="#65A966"/>
<path d="M230.285 237.58H208.46C208.312 237.577 208.17 237.517 208.065 237.412C207.961 237.307 207.9 237.166 207.897 237.018V128.86C207.897 128.711 207.957 128.568 208.062 128.462C208.168 128.357 208.311 128.298 208.46 128.298H230.285C230.434 128.298 230.577 128.357 230.683 128.462C230.788 128.568 230.847 128.711 230.847 128.86V237.018C230.847 237.167 230.788 237.31 230.683 237.415C230.577 237.521 230.434 237.58 230.285 237.58ZM209.022 236.455H229.722V129.456H209L209.022 236.455Z" fill="#231F20"/>
<path d="M208.46 128.86H204.32V237.006H208.46V128.86Z" fill="white"/>
<path d="M208.46 237.58H204.32C204.171 237.58 204.028 237.521 203.922 237.415C203.817 237.31 203.757 237.167 203.757 237.018V128.86C203.757 128.711 203.817 128.568 203.922 128.462C204.028 128.357 204.171 128.298 204.32 128.298H208.46C208.609 128.298 208.752 128.357 208.858 128.462C208.963 128.568 209.022 128.711 209.022 128.86V237.018C209.022 237.167 208.963 237.31 208.858 237.415C208.752 237.521 208.609 237.58 208.46 237.58ZM204.882 236.455H207.875V129.456H204.86L204.882 236.455Z" fill="#231F20"/>
<path d="M234.425 128.86H230.285V237.006H234.425V128.86Z" fill="white"/>
<path d="M234.436 237.58H230.285C230.137 237.577 229.995 237.517 229.89 237.412C229.786 237.307 229.725 237.166 229.722 237.018V128.86C229.722 128.711 229.782 128.568 229.887 128.462C229.993 128.357 230.136 128.298 230.285 128.298H234.436C234.585 128.298 234.728 128.357 234.834 128.462C234.939 128.568 234.999 128.711 234.999 128.86V237.018C234.996 237.166 234.936 237.307 234.831 237.412C234.726 237.517 234.585 237.577 234.436 237.58ZM230.847 236.455H233.874V129.456H230.847V236.455Z" fill="#231F20"/>
<path d="M213.432 217.116C213.283 217.116 213.14 217.057 213.035 216.952C212.929 216.846 212.87 216.703 212.87 216.554V128.86C212.87 128.711 212.929 128.568 213.035 128.462C213.14 128.357 213.283 128.298 213.432 128.298C213.582 128.298 213.725 128.357 213.83 128.462C213.936 128.568 213.995 128.711 213.995 128.86V216.554C213.995 216.703 213.936 216.846 213.83 216.952C213.725 217.057 213.582 217.116 213.432 217.116Z" fill="#231F20"/>
<path d="M219.372 217.116C219.223 217.116 219.08 217.057 218.975 216.952C218.869 216.846 218.81 216.703 218.81 216.554V128.86C218.81 128.711 218.869 128.568 218.975 128.462C219.08 128.357 219.223 128.298 219.372 128.298C219.522 128.298 219.665 128.357 219.77 128.462C219.876 128.568 219.935 128.711 219.935 128.86V216.554C219.935 216.703 219.876 216.846 219.77 216.952C219.665 217.057 219.522 217.116 219.372 217.116Z" fill="#231F20"/>
<path d="M225.312 217.116C225.163 217.116 225.02 217.057 224.915 216.952C224.809 216.846 224.75 216.703 224.75 216.554V128.86C224.75 128.711 224.809 128.568 224.915 128.462C225.02 128.357 225.163 128.298 225.312 128.298C225.462 128.298 225.605 128.357 225.71 128.462C225.816 128.568 225.875 128.711 225.875 128.86V216.554C225.875 216.703 225.816 216.846 225.71 216.952C225.605 217.057 225.462 217.116 225.312 217.116Z" fill="#231F20"/>
<path d="M230.285 151.371H208.46V155.241H230.285V151.371Z" fill="#231F20"/>
<path d="M230.285 172.454H208.46V176.324H230.285V172.454Z" fill="#231F20"/>
<path d="M230.285 193.536H208.46V197.406H230.285V193.536Z" fill="#231F20"/>
<path d="M230.285 214.619H208.46V218.489H230.285V214.619Z" fill="#231F20"/>
<path d="M292.914 89.2263H244.764V93.3438H292.914V89.2263Z" fill="white"/>
<path d="M292.914 93.9175H244.764C244.615 93.9146 244.474 93.8545 244.369 93.7496C244.264 93.6447 244.204 93.5033 244.201 93.355V89.2263C244.204 89.078 244.264 88.9366 244.369 88.8317C244.474 88.7268 244.615 88.6666 244.764 88.6638H292.914C293.063 88.6638 293.206 88.723 293.311 88.8285C293.417 88.934 293.476 89.0771 293.476 89.2263V93.355C293.476 93.5042 293.417 93.6473 293.311 93.7528C293.206 93.8583 293.063 93.9175 292.914 93.9175ZM245.326 92.7925H292.351V89.7888H245.326V92.7925Z" fill="#231F20"/>
<path d="M289.033 93.3438H248.656V97.3038H289.033V93.3438Z" fill="white"/>
<path d="M289.032 97.8663H248.656C248.507 97.8663 248.364 97.807 248.258 97.7015C248.153 97.596 248.094 97.453 248.094 97.3038V93.355C248.094 93.2059 248.153 93.0628 248.258 92.9573C248.364 92.8518 248.507 92.7925 248.656 92.7925H289.032C289.182 92.7925 289.325 92.8518 289.43 92.9573C289.536 93.0628 289.595 93.2059 289.595 93.355V97.3038C289.595 97.453 289.536 97.596 289.43 97.7015C289.325 97.807 289.182 97.8663 289.032 97.8663ZM249.219 96.7413H288.47V93.9175H249.219V96.7413Z" fill="#231F20"/>
<path d="M289.033 93.3438H248.656V97.3038H289.033V93.3438Z" fill="#231F20"/>
<path d="M289.033 97.3038H248.656V108.408H289.033V97.3038Z" fill="white"/>
<path d="M289.032 108.97H248.656C248.507 108.97 248.364 108.911 248.258 108.805C248.153 108.7 248.094 108.557 248.094 108.408V97.3038C248.094 97.1546 248.153 97.0115 248.258 96.906C248.364 96.8005 248.507 96.7413 248.656 96.7413H289.032C289.182 96.7413 289.325 96.8005 289.43 96.906C289.536 97.0115 289.595 97.1546 289.595 97.3038V108.408C289.595 108.557 289.536 108.7 289.43 108.805C289.325 108.911 289.182 108.97 289.032 108.97ZM249.219 107.845H288.47V97.8663H249.219V107.845Z" fill="#231F20"/>
<path d="M289.033 97.3038H248.656V108.408H289.033V97.3038Z" fill="#65A966"/>
<path d="M289.032 108.97H248.656C248.507 108.97 248.364 108.911 248.258 108.805C248.153 108.7 248.094 108.557 248.094 108.408V97.3038C248.094 97.1546 248.153 97.0115 248.258 96.906C248.364 96.8005 248.507 96.7413 248.656 96.7413H289.032C289.182 96.7413 289.325 96.8005 289.43 96.906C289.536 97.0115 289.595 97.1546 289.595 97.3038V108.408C289.595 108.557 289.536 108.7 289.43 108.805C289.325 108.911 289.182 108.97 289.032 108.97ZM249.219 107.845H288.47V97.8663H249.219V107.845Z" fill="#231F20"/>
<path d="M258.5 108.97C258.351 108.97 258.208 108.911 258.102 108.805C257.997 108.7 257.937 108.557 257.937 108.408V97.3038C257.94 97.1555 258.001 97.0141 258.105 96.9092C258.21 96.8043 258.352 96.7442 258.5 96.7413C258.649 96.7413 258.792 96.8005 258.898 96.906C259.003 97.0115 259.062 97.1546 259.062 97.3038V108.408C259.062 108.557 259.003 108.7 258.898 108.805C258.792 108.911 258.649 108.97 258.5 108.97Z" fill="#231F20"/>
<path d="M268.839 108.97C268.69 108.97 268.546 108.911 268.441 108.805C268.335 108.7 268.276 108.557 268.276 108.408V97.3038C268.279 97.1555 268.339 97.0141 268.444 96.9092C268.549 96.8043 268.69 96.7442 268.839 96.7413C268.988 96.7413 269.131 96.8005 269.236 96.906C269.342 97.0115 269.401 97.1546 269.401 97.3038V108.408C269.401 108.557 269.342 108.7 269.236 108.805C269.131 108.911 268.988 108.97 268.839 108.97Z" fill="#231F20"/>
<path d="M279.144 108.97C278.995 108.97 278.851 108.911 278.746 108.805C278.641 108.7 278.581 108.557 278.581 108.408V97.3038C278.581 97.1546 278.641 97.0115 278.746 96.906C278.851 96.8005 278.995 96.7413 279.144 96.7413C279.292 96.7442 279.433 96.8043 279.538 96.9092C279.643 97.0141 279.703 97.1555 279.706 97.3038V108.408C279.706 108.557 279.647 108.7 279.542 108.805C279.436 108.911 279.293 108.97 279.144 108.97Z" fill="#231F20"/>
<path d="M292.914 107.598H244.764V111.715H292.914V107.598Z" fill="white"/>
<path d="M292.914 112.289H244.764C244.615 112.286 244.474 112.226 244.369 112.121C244.264 112.016 244.204 111.875 244.201 111.726V107.598C244.204 107.449 244.264 107.308 244.369 107.203C244.474 107.098 244.615 107.038 244.764 107.035H292.914C293.063 107.035 293.206 107.094 293.311 107.2C293.417 107.305 293.476 107.448 293.476 107.598V111.726C293.476 111.875 293.417 112.019 293.311 112.124C293.206 112.23 293.063 112.289 292.914 112.289ZM245.326 111.164H292.351V108.16H245.326V111.164Z" fill="#231F20"/>
<path d="M289.033 111.726H248.656V115.686H289.033V111.726Z" fill="white"/>
<path d="M289.032 116.238H248.656C248.507 116.238 248.364 116.178 248.258 116.073C248.153 115.967 248.094 115.824 248.094 115.675V111.726C248.094 111.577 248.153 111.434 248.258 111.329C248.364 111.223 248.507 111.164 248.656 111.164H289.032C289.182 111.164 289.325 111.223 289.43 111.329C289.536 111.434 289.595 111.577 289.595 111.726V115.675C289.595 115.824 289.536 115.967 289.43 116.073C289.325 116.178 289.182 116.238 289.032 116.238ZM249.219 115.113H288.47V112.289H249.219V115.113Z" fill="#231F20"/>
<path d="M289.033 111.726H248.656V115.686H289.033V111.726Z" fill="#231F20"/>
<path d="M289.033 115.675H248.656V126.779H289.033V115.675Z" fill="white"/>
<path d="M289.032 127.341H248.656C248.507 127.341 248.364 127.282 248.258 127.177C248.153 127.071 248.094 126.928 248.094 126.779V115.675C248.094 115.526 248.153 115.383 248.258 115.277C248.364 115.172 248.507 115.113 248.656 115.113H289.032C289.182 115.113 289.325 115.172 289.43 115.277C289.536 115.383 289.595 115.526 289.595 115.675V126.779C289.595 126.928 289.536 127.071 289.43 127.177C289.325 127.282 289.182 127.341 289.032 127.341ZM249.219 126.216H288.47V116.238H249.219V126.216Z" fill="#231F20"/>
<path d="M289.033 115.675H248.656V126.779H289.033V115.675Z" fill="#65A966"/>
<path d="M289.032 127.341H248.656C248.507 127.341 248.364 127.282 248.258 127.177C248.153 127.071 248.094 126.928 248.094 126.779V115.675C248.094 115.526 248.153 115.383 248.258 115.277C248.364 115.172 248.507 115.113 248.656 115.113H289.032C289.182 115.113 289.325 115.172 289.43 115.277C289.536 115.383 289.595 115.526 289.595 115.675V126.779C289.595 126.928 289.536 127.071 289.43 127.177C289.325 127.282 289.182 127.341 289.032 127.341ZM249.219 126.216H288.47V116.238H249.219V126.216Z" fill="#231F20"/>
<path d="M258.5 127.341C258.351 127.341 258.208 127.282 258.102 127.177C257.997 127.071 257.937 126.928 257.937 126.779V115.675C257.94 115.527 258.001 115.385 258.105 115.28C258.21 115.176 258.352 115.115 258.5 115.113C258.649 115.113 258.792 115.172 258.898 115.277C259.003 115.383 259.062 115.526 259.062 115.675V126.779C259.062 126.928 259.003 127.071 258.898 127.177C258.792 127.282 258.649 127.341 258.5 127.341Z" fill="#231F20"/>
<path d="M268.839 127.341C268.69 127.341 268.546 127.282 268.441 127.177C268.335 127.071 268.276 126.928 268.276 126.779V115.675C268.279 115.527 268.339 115.385 268.444 115.28C268.549 115.176 268.69 115.115 268.839 115.113C268.988 115.113 269.131 115.172 269.236 115.277C269.342 115.383 269.401 115.526 269.401 115.675V126.779C269.401 126.928 269.342 127.071 269.236 127.177C269.131 127.282 268.988 127.341 268.839 127.341Z" fill="#231F20"/>
<path d="M279.144 127.341C278.995 127.341 278.851 127.282 278.746 127.177C278.641 127.071 278.581 126.928 278.581 126.779V115.675C278.581 115.526 278.641 115.383 278.746 115.277C278.851 115.172 278.995 115.113 279.144 115.113C279.292 115.115 279.433 115.176 279.538 115.28C279.643 115.385 279.703 115.527 279.706 115.675V126.779C279.706 126.928 279.647 127.071 279.542 127.177C279.436 127.282 279.293 127.341 279.144 127.341Z" fill="#231F20"/>
<path d="M292.914 125.969H244.764V130.086H292.914V125.969Z" fill="white"/>
<path d="M292.914 130.66H244.764C244.615 130.657 244.474 130.597 244.369 130.492C244.264 130.387 244.204 130.246 244.201 130.098V125.969C244.204 125.82 244.264 125.679 244.369 125.574C244.474 125.469 244.615 125.409 244.764 125.406H292.914C293.063 125.406 293.206 125.466 293.311 125.571C293.417 125.676 293.476 125.82 293.476 125.969V130.098C293.476 130.247 293.417 130.39 293.311 130.495C293.206 130.601 293.063 130.66 292.914 130.66ZM245.326 129.535H292.351V126.531H245.326V129.535Z" fill="#231F20"/>
<path d="M289.033 130.098H248.656V134.058H289.033V130.098Z" fill="white"/>
<path d="M289.032 134.609H248.656C248.507 134.609 248.364 134.55 248.258 134.444C248.153 134.339 248.094 134.195 248.094 134.046V130.098C248.094 129.948 248.153 129.805 248.258 129.7C248.364 129.594 248.507 129.535 248.656 129.535H289.032C289.182 129.535 289.325 129.594 289.43 129.7C289.536 129.805 289.595 129.948 289.595 130.098V134.046C289.595 134.195 289.536 134.339 289.43 134.444C289.325 134.55 289.182 134.609 289.032 134.609ZM249.219 133.484H288.47V130.66H249.219V133.484Z" fill="#231F20"/>
<path d="M289.033 130.098H248.656V134.058H289.033V130.098Z" fill="#231F20"/>
<path d="M289.033 134.046H248.656V145.15H289.033V134.046Z" fill="white"/>
<path d="M289.032 145.713H248.656C248.507 145.713 248.364 145.653 248.258 145.548C248.153 145.442 248.094 145.299 248.094 145.15V134.046C248.094 133.897 248.153 133.754 248.258 133.649C248.364 133.543 248.507 133.484 248.656 133.484H289.032C289.182 133.484 289.325 133.543 289.43 133.649C289.536 133.754 289.595 133.897 289.595 134.046V145.206C289.581 145.345 289.516 145.475 289.412 145.568C289.308 145.662 289.172 145.713 289.032 145.713ZM249.219 144.588H288.47V134.609H249.219V144.588Z" fill="#231F20"/>
<path d="M289.033 134.046H248.656V145.15H289.033V134.046Z" fill="#65A966"/>
<path d="M289.032 145.713H248.656C248.507 145.713 248.364 145.653 248.258 145.548C248.153 145.442 248.094 145.299 248.094 145.15V134.046C248.094 133.897 248.153 133.754 248.258 133.649C248.364 133.543 248.507 133.484 248.656 133.484H289.032C289.182 133.484 289.325 133.543 289.43 133.649C289.536 133.754 289.595 133.897 289.595 134.046V145.206C289.581 145.345 289.516 145.475 289.412 145.568C289.308 145.662 289.172 145.713 289.032 145.713ZM249.219 144.588H288.47V134.609H249.219V144.588Z" fill="#231F20"/>
<path d="M258.5 145.713C258.351 145.713 258.208 145.653 258.102 145.548C257.997 145.442 257.937 145.299 257.937 145.15V134.046C257.94 133.898 258.001 133.757 258.105 133.652C258.21 133.547 258.352 133.487 258.5 133.484C258.649 133.484 258.792 133.543 258.898 133.649C259.003 133.754 259.062 133.897 259.062 134.046V145.206C259.048 145.345 258.983 145.475 258.879 145.568C258.775 145.662 258.64 145.713 258.5 145.713Z" fill="#231F20"/>
<path d="M268.839 145.713C268.69 145.713 268.546 145.653 268.441 145.548C268.335 145.442 268.276 145.299 268.276 145.15V134.046C268.279 133.898 268.339 133.757 268.444 133.652C268.549 133.547 268.69 133.487 268.839 133.484C268.988 133.484 269.131 133.543 269.236 133.649C269.342 133.754 269.401 133.897 269.401 134.046V145.206C269.387 145.345 269.322 145.475 269.218 145.568C269.114 145.662 268.979 145.713 268.839 145.713Z" fill="#231F20"/>
<path d="M279.144 145.713C278.995 145.713 278.851 145.653 278.746 145.548C278.641 145.442 278.581 145.299 278.581 145.15V134.046C278.581 133.897 278.641 133.754 278.746 133.649C278.851 133.543 278.995 133.484 279.144 133.484C279.292 133.487 279.433 133.547 279.538 133.652C279.643 133.757 279.703 133.898 279.706 134.046V145.206C279.692 145.345 279.627 145.475 279.523 145.568C279.419 145.662 279.284 145.713 279.144 145.713Z" fill="#231F20"/>
<path d="M292.914 144.34H244.764V148.458H292.914V144.34Z" fill="white"/>
<path d="M292.914 149.031H244.764C244.615 149.028 244.474 148.968 244.369 148.863C244.264 148.759 244.204 148.617 244.201 148.469V144.351C244.201 144.202 244.261 144.059 244.366 143.954C244.471 143.848 244.615 143.789 244.764 143.789H292.914C293.063 143.789 293.206 143.848 293.311 143.954C293.417 144.059 293.476 144.202 293.476 144.351V148.469C293.476 148.618 293.417 148.761 293.311 148.867C293.206 148.972 293.063 149.031 292.914 149.031ZM245.326 147.906H292.351V144.914H245.326V147.906Z" fill="#231F20"/>
<path d="M289.033 148.469H248.656V152.429H289.033V148.469Z" fill="white"/>
<path d="M289.032 152.98H248.656C248.507 152.98 248.364 152.921 248.258 152.815C248.153 152.71 248.094 152.567 248.094 152.418V148.469C248.094 148.32 248.153 148.177 248.258 148.071C248.364 147.966 248.507 147.906 248.656 147.906H289.032C289.182 147.906 289.325 147.966 289.43 148.071C289.536 148.177 289.595 148.32 289.595 148.469V152.418C289.595 152.567 289.536 152.71 289.43 152.815C289.325 152.921 289.182 152.98 289.032 152.98ZM249.219 151.855H288.47V149.031H249.219V151.855Z" fill="#231F20"/>
<path d="M289.033 148.469H248.656V152.429H289.033V148.469Z" fill="#231F20"/>
<path d="M289.033 152.418H248.656V163.521H289.033V152.418Z" fill="white"/>
<path d="M289.032 164.084H248.656C248.507 164.084 248.364 164.025 248.258 163.919C248.153 163.814 248.094 163.67 248.094 163.521V152.418C248.094 152.268 248.153 152.125 248.258 152.02C248.364 151.914 248.507 151.855 248.656 151.855H289.032C289.182 151.855 289.325 151.914 289.43 152.02C289.536 152.125 289.595 152.268 289.595 152.418V163.521C289.595 163.67 289.536 163.814 289.43 163.919C289.325 164.025 289.182 164.084 289.032 164.084ZM249.219 162.959H288.47V152.98H249.219V162.959Z" fill="#231F20"/>
<path d="M289.033 152.418H248.656V163.521H289.033V152.418Z" fill="#65A966"/>
<path d="M289.032 164.084H248.656C248.507 164.084 248.364 164.025 248.258 163.919C248.153 163.814 248.094 163.67 248.094 163.521V152.418C248.094 152.268 248.153 152.125 248.258 152.02C248.364 151.914 248.507 151.855 248.656 151.855H289.032C289.182 151.855 289.325 151.914 289.43 152.02C289.536 152.125 289.595 152.268 289.595 152.418V163.521C289.595 163.67 289.536 163.814 289.43 163.919C289.325 164.025 289.182 164.084 289.032 164.084ZM249.219 162.959H288.47V152.98H249.219V162.959Z" fill="#231F20"/>
<path d="M258.5 164.084C258.351 164.084 258.208 164.025 258.102 163.919C257.997 163.814 257.937 163.67 257.937 163.521V152.418C257.94 152.269 258.001 152.128 258.105 152.023C258.21 151.918 258.352 151.858 258.5 151.855C258.649 151.855 258.792 151.914 258.898 152.02C259.003 152.125 259.062 152.268 259.062 152.418V163.521C259.062 163.67 259.003 163.814 258.898 163.919C258.792 164.025 258.649 164.084 258.5 164.084Z" fill="#231F20"/>
<path d="M268.839 164.084C268.69 164.084 268.546 164.025 268.441 163.919C268.335 163.814 268.276 163.67 268.276 163.521V152.418C268.279 152.269 268.339 152.128 268.444 152.023C268.549 151.918 268.69 151.858 268.839 151.855C268.988 151.855 269.131 151.914 269.236 152.02C269.342 152.125 269.401 152.268 269.401 152.418V163.521C269.401 163.67 269.342 163.814 269.236 163.919C269.131 164.025 268.988 164.084 268.839 164.084Z" fill="#231F20"/>
<path d="M279.144 164.084C278.995 164.084 278.851 164.025 278.746 163.919C278.641 163.814 278.581 163.67 278.581 163.521V152.418C278.581 152.268 278.641 152.125 278.746 152.02C278.851 151.914 278.995 151.855 279.144 151.855C279.292 151.858 279.433 151.918 279.538 152.023C279.643 152.128 279.703 152.269 279.706 152.418V163.521C279.706 163.67 279.647 163.814 279.542 163.919C279.436 164.025 279.293 164.084 279.144 164.084Z" fill="#231F20"/>
<path d="M292.914 162.723H244.764V166.84H292.914V162.723Z" fill="white"/>
<path d="M292.914 167.403H244.764C244.615 167.4 244.474 167.339 244.369 167.235C244.264 167.13 244.204 166.988 244.201 166.84V162.723C244.201 162.573 244.261 162.43 244.366 162.325C244.471 162.219 244.615 162.16 244.764 162.16H292.914C293.063 162.16 293.206 162.219 293.311 162.325C293.417 162.43 293.476 162.573 293.476 162.723V166.84C293.476 166.989 293.417 167.132 293.311 167.238C293.206 167.343 293.063 167.403 292.914 167.403ZM245.326 166.278H292.351V163.285H245.326V166.278Z" fill="#231F20"/>
<path d="M289.033 166.84H248.656V170.8H289.033V166.84Z" fill="white"/>
<path d="M289.032 171.351H248.656C248.507 171.351 248.364 171.292 248.258 171.187C248.153 171.081 248.094 170.938 248.094 170.789V166.84C248.094 166.691 248.153 166.548 248.258 166.442C248.364 166.337 248.507 166.278 248.656 166.278H289.032C289.182 166.278 289.325 166.337 289.43 166.442C289.536 166.548 289.595 166.691 289.595 166.84V170.789C289.595 170.938 289.536 171.081 289.43 171.187C289.325 171.292 289.182 171.351 289.032 171.351ZM249.219 170.226H288.47V167.403H249.219V170.226Z" fill="#231F20"/>
<path d="M289.033 166.84H248.656V170.8H289.033V166.84Z" fill="#231F20"/>
<path d="M289.033 170.789H248.656V181.893H289.033V170.789Z" fill="white"/>
<path d="M289.032 182.455H248.656C248.507 182.455 248.364 182.396 248.258 182.29C248.153 182.185 248.094 182.042 248.094 181.893V170.789C248.094 170.64 248.153 170.496 248.258 170.391C248.364 170.286 248.507 170.226 248.656 170.226H289.032C289.182 170.226 289.325 170.286 289.43 170.391C289.536 170.496 289.595 170.64 289.595 170.789V181.893C289.595 182.042 289.536 182.185 289.43 182.29C289.325 182.396 289.182 182.455 289.032 182.455ZM249.219 181.33H288.47V171.351H249.219V181.33Z" fill="#231F20"/>
<path d="M289.033 170.789H248.656V181.893H289.033V170.789Z" fill="#65A966"/>
<path d="M289.032 182.455H248.656C248.507 182.455 248.364 182.396 248.258 182.29C248.153 182.185 248.094 182.042 248.094 181.893V170.789C248.094 170.64 248.153 170.496 248.258 170.391C248.364 170.286 248.507 170.226 248.656 170.226H289.032C289.182 170.226 289.325 170.286 289.43 170.391C289.536 170.496 289.595 170.64 289.595 170.789V181.893C289.595 182.042 289.536 182.185 289.43 182.29C289.325 182.396 289.182 182.455 289.032 182.455ZM249.219 181.33H288.47V171.351H249.219V181.33Z" fill="#231F20"/>
<path d="M258.5 182.455C258.351 182.455 258.208 182.396 258.102 182.29C257.997 182.185 257.937 182.042 257.937 181.893V170.789C257.94 170.64 258.001 170.499 258.105 170.394C258.21 170.289 258.352 170.229 258.5 170.226C258.649 170.226 258.792 170.286 258.898 170.391C259.003 170.496 259.062 170.64 259.062 170.789V181.893C259.062 182.042 259.003 182.185 258.898 182.29C258.792 182.396 258.649 182.455 258.5 182.455Z" fill="#231F20"/>
<path d="M268.839 182.455C268.69 182.455 268.546 182.396 268.441 182.29C268.335 182.185 268.276 182.042 268.276 181.893V170.789C268.279 170.64 268.339 170.499 268.444 170.394C268.549 170.289 268.69 170.229 268.839 170.226C268.988 170.226 269.131 170.286 269.236 170.391C269.342 170.496 269.401 170.64 269.401 170.789V181.893C269.401 182.042 269.342 182.185 269.236 182.29C269.131 182.396 268.988 182.455 268.839 182.455Z" fill="#231F20"/>
<path d="M279.144 182.455C278.995 182.455 278.851 182.396 278.746 182.29C278.641 182.185 278.581 182.042 278.581 181.893V170.789C278.581 170.64 278.641 170.496 278.746 170.391C278.851 170.286 278.995 170.226 279.144 170.226C279.292 170.229 279.433 170.289 279.538 170.394C279.643 170.499 279.703 170.64 279.706 170.789V181.893C279.706 182.042 279.647 182.185 279.542 182.29C279.436 182.396 279.293 182.455 279.144 182.455Z" fill="#231F20"/>
<path d="M292.914 181.094H244.764V185.211H292.914V181.094Z" fill="white"/>
<path d="M292.914 185.774H244.764C244.615 185.771 244.474 185.711 244.369 185.606C244.264 185.501 244.204 185.36 244.201 185.211V181.094C244.201 180.945 244.261 180.801 244.366 180.696C244.471 180.591 244.615 180.531 244.764 180.531H292.914C293.063 180.531 293.206 180.591 293.311 180.696C293.417 180.801 293.476 180.945 293.476 181.094V185.211C293.476 185.36 293.417 185.504 293.311 185.609C293.206 185.714 293.063 185.774 292.914 185.774ZM245.326 184.649H292.351V181.656H245.326V184.649Z" fill="#231F20"/>
<path d="M289.033 185.211H248.656V189.171H289.033V185.211Z" fill="white"/>
<path d="M289.032 189.723H248.656C248.507 189.723 248.364 189.663 248.258 189.558C248.153 189.452 248.094 189.309 248.094 189.16V185.211C248.094 185.062 248.153 184.919 248.258 184.814C248.364 184.708 248.507 184.649 248.656 184.649H289.032C289.182 184.649 289.325 184.708 289.43 184.814C289.536 184.919 289.595 185.062 289.595 185.211V189.16C289.595 189.309 289.536 189.452 289.43 189.558C289.325 189.663 289.182 189.723 289.032 189.723ZM249.219 188.598H288.47V185.774H249.219V188.598Z" fill="#231F20"/>
<path d="M289.033 185.211H248.656V189.171H289.033V185.211Z" fill="#231F20"/>
<path d="M289.033 189.16H248.656V200.264H289.033V189.16Z" fill="white"/>
<path d="M289.032 200.826H248.656C248.507 200.826 248.364 200.767 248.258 200.662C248.153 200.556 248.094 200.413 248.094 200.264V189.16C248.094 189.011 248.153 188.868 248.258 188.762C248.364 188.657 248.507 188.598 248.656 188.598H289.032C289.182 188.598 289.325 188.657 289.43 188.762C289.536 188.868 289.595 189.011 289.595 189.16V200.264C289.595 200.413 289.536 200.556 289.43 200.662C289.325 200.767 289.182 200.826 289.032 200.826ZM249.219 199.701H288.47V189.723H249.219V199.701Z" fill="#231F20"/>
<path d="M289.033 189.16H248.656V200.264H289.033V189.16Z" fill="#65A966"/>
<path d="M289.032 200.826H248.656C248.507 200.826 248.364 200.767 248.258 200.662C248.153 200.556 248.094 200.413 248.094 200.264V189.16C248.094 189.011 248.153 188.868 248.258 188.762C248.364 188.657 248.507 188.598 248.656 188.598H289.032C289.182 188.598 289.325 188.657 289.43 188.762C289.536 188.868 289.595 189.011 289.595 189.16V200.264C289.595 200.413 289.536 200.556 289.43 200.662C289.325 200.767 289.182 200.826 289.032 200.826ZM249.219 199.701H288.47V189.723H249.219V199.701Z" fill="#231F20"/>
<path d="M258.5 200.826C258.351 200.826 258.208 200.767 258.102 200.662C257.997 200.556 257.937 200.413 257.937 200.264V189.16C257.94 189.012 258.001 188.87 258.105 188.765C258.21 188.661 258.352 188.6 258.5 188.598C258.649 188.598 258.792 188.657 258.898 188.762C259.003 188.868 259.062 189.011 259.062 189.16V200.264C259.062 200.413 259.003 200.556 258.898 200.662C258.792 200.767 258.649 200.826 258.5 200.826Z" fill="#231F20"/>
<path d="M268.839 200.826C268.69 200.826 268.546 200.767 268.441 200.662C268.335 200.556 268.276 200.413 268.276 200.264V189.16C268.279 189.012 268.339 188.87 268.444 188.765C268.549 188.661 268.69 188.6 268.839 188.598C268.988 188.598 269.131 188.657 269.236 188.762C269.342 188.868 269.401 189.011 269.401 189.16V200.264C269.401 200.413 269.342 200.556 269.236 200.662C269.131 200.767 268.988 200.826 268.839 200.826Z" fill="#231F20"/>
<path d="M279.144 200.826C278.995 200.826 278.851 200.767 278.746 200.662C278.641 200.556 278.581 200.413 278.581 200.264V189.16C278.581 189.011 278.641 188.868 278.746 188.762C278.851 188.657 278.995 188.598 279.144 188.598C279.292 188.6 279.433 188.661 279.538 188.765C279.643 188.87 279.703 189.012 279.706 189.16V200.264C279.706 200.413 279.647 200.556 279.542 200.662C279.436 200.767 279.293 200.826 279.144 200.826Z" fill="#231F20"/>
<path d="M292.914 199.465H244.764V203.583H292.914V199.465Z" fill="white"/>
<path d="M292.914 204.145H244.764C244.615 204.142 244.474 204.082 244.369 203.977C244.264 203.872 244.204 203.731 244.201 203.583V199.465C244.201 199.316 244.261 199.173 244.366 199.067C244.471 198.962 244.615 198.903 244.764 198.903H292.914C293.063 198.903 293.206 198.962 293.311 199.067C293.417 199.173 293.476 199.316 293.476 199.465V203.583C293.476 203.732 293.417 203.875 293.311 203.98C293.206 204.086 293.063 204.145 292.914 204.145ZM245.326 203.02H292.351V200.028H245.326V203.02Z" fill="#231F20"/>
<path d="M289.033 203.583H248.656V207.543H289.033V203.583Z" fill="white"/>
<path d="M289.032 208.094H248.656C248.507 208.094 248.364 208.034 248.258 207.929C248.153 207.824 248.094 207.68 248.094 207.531V203.583C248.094 203.433 248.153 203.29 248.258 203.185C248.364 203.079 248.507 203.02 248.656 203.02H289.032C289.182 203.02 289.325 203.079 289.43 203.185C289.536 203.29 289.595 203.433 289.595 203.583V207.531C289.595 207.68 289.536 207.824 289.43 207.929C289.325 208.034 289.182 208.094 289.032 208.094ZM249.219 206.969H288.47V204.145H249.219V206.969Z" fill="#231F20"/>
<path d="M289.033 203.583H248.656V207.543H289.033V203.583Z" fill="#231F20"/>
<path d="M289.033 207.531H248.656V218.635H289.033V207.531Z" fill="white"/>
<path d="M289.032 219.198H248.656C248.507 219.198 248.364 219.138 248.258 219.033C248.153 218.927 248.094 218.784 248.094 218.635V207.531C248.094 207.382 248.153 207.239 248.258 207.134C248.364 207.028 248.507 206.969 248.656 206.969H289.032C289.182 206.969 289.325 207.028 289.43 207.134C289.536 207.239 289.595 207.382 289.595 207.531V218.635C289.595 218.784 289.536 218.927 289.43 219.033C289.325 219.138 289.182 219.198 289.032 219.198ZM249.219 218.073H288.47V208.094H249.219V218.073Z" fill="#231F20"/>
<path d="M289.033 207.531H248.656V218.635H289.033V207.531Z" fill="#65A966"/>
<path d="M289.032 219.198H248.656C248.507 219.198 248.364 219.138 248.258 219.033C248.153 218.927 248.094 218.784 248.094 218.635V207.531C248.094 207.382 248.153 207.239 248.258 207.134C248.364 207.028 248.507 206.969 248.656 206.969H289.032C289.182 206.969 289.325 207.028 289.43 207.134C289.536 207.239 289.595 207.382 289.595 207.531V218.635C289.595 218.784 289.536 218.927 289.43 219.033C289.325 219.138 289.182 219.198 289.032 219.198ZM249.219 218.073H288.47V208.094H249.219V218.073Z" fill="#231F20"/>
<path d="M258.5 219.198C258.351 219.198 258.208 219.138 258.102 219.033C257.997 218.927 257.937 218.784 257.937 218.635V207.531C257.94 207.383 258.001 207.242 258.105 207.137C258.21 207.032 258.352 206.972 258.5 206.969C258.649 206.969 258.792 207.028 258.898 207.134C259.003 207.239 259.062 207.382 259.062 207.531V218.635C259.062 218.784 259.003 218.927 258.898 219.033C258.792 219.138 258.649 219.198 258.5 219.198Z" fill="#231F20"/>
<path d="M268.839 219.198C268.69 219.198 268.546 219.138 268.441 219.033C268.335 218.927 268.276 218.784 268.276 218.635V207.531C268.279 207.383 268.339 207.242 268.444 207.137C268.549 207.032 268.69 206.972 268.839 206.969C268.988 206.969 269.131 207.028 269.236 207.134C269.342 207.239 269.401 207.382 269.401 207.531V218.635C269.401 218.784 269.342 218.927 269.236 219.033C269.131 219.138 268.988 219.198 268.839 219.198Z" fill="#231F20"/>
<path d="M279.144 219.198C278.995 219.198 278.851 219.138 278.746 219.033C278.641 218.927 278.581 218.784 278.581 218.635V207.531C278.581 207.382 278.641 207.239 278.746 207.134C278.851 207.028 278.995 206.969 279.144 206.969C279.292 206.972 279.433 207.032 279.538 207.137C279.643 207.242 279.703 207.383 279.706 207.531V218.635C279.706 218.784 279.647 218.927 279.542 219.033C279.436 219.138 279.293 219.198 279.144 219.198Z" fill="#231F20"/>
<path d="M292.914 217.836H244.764V221.954H292.914V217.836Z" fill="white"/>
<path d="M292.914 222.516H244.764C244.615 222.513 244.474 222.453 244.369 222.348C244.264 222.244 244.204 222.102 244.201 221.954V217.836C244.201 217.687 244.261 217.544 244.366 217.439C244.471 217.333 244.615 217.274 244.764 217.274H292.914C293.063 217.274 293.206 217.333 293.311 217.439C293.417 217.544 293.476 217.687 293.476 217.836V221.954C293.476 222.103 293.417 222.246 293.311 222.352C293.206 222.457 293.063 222.516 292.914 222.516ZM245.326 221.391H292.351V218.399H245.326V221.391Z" fill="#231F20"/>
<path d="M289.033 221.954H248.656V225.914H289.033V221.954Z" fill="white"/>
<path d="M289.032 226.476H248.656C248.507 226.476 248.364 226.417 248.258 226.312C248.153 226.206 248.094 226.063 248.094 225.914V221.954C248.094 221.805 248.153 221.662 248.258 221.556C248.364 221.451 248.507 221.391 248.656 221.391H289.032C289.182 221.391 289.325 221.451 289.43 221.556C289.536 221.662 289.595 221.805 289.595 221.954V225.914C289.595 226.063 289.536 226.206 289.43 226.312C289.325 226.417 289.182 226.476 289.032 226.476ZM249.219 225.351H288.47V222.516H249.219V225.351Z" fill="#231F20"/>
<path d="M289.033 221.954H248.656V225.914H289.033V221.954Z" fill="#231F20"/>
<path d="M289.033 225.903H248.656V237.006H289.033V225.903Z" fill="white"/>
<path d="M289.032 237.58H248.656C248.507 237.58 248.364 237.521 248.258 237.415C248.153 237.31 248.094 237.167 248.094 237.018V225.914C248.094 225.765 248.153 225.622 248.258 225.516C248.364 225.411 248.507 225.351 248.656 225.351H289.032C289.182 225.351 289.325 225.411 289.43 225.516C289.536 225.622 289.595 225.765 289.595 225.914V237.018C289.595 237.167 289.536 237.31 289.43 237.415C289.325 237.521 289.182 237.58 289.032 237.58ZM249.219 236.455H288.47V226.476H249.219V236.455Z" fill="#231F20"/>
<path d="M289.033 225.903H248.656V237.006H289.033V225.903Z" fill="#65A966"/>
<path d="M289.032 237.58H248.656C248.507 237.58 248.364 237.521 248.258 237.415C248.153 237.31 248.094 237.167 248.094 237.018V225.914C248.094 225.765 248.153 225.622 248.258 225.516C248.364 225.411 248.507 225.351 248.656 225.351H289.032C289.182 225.351 289.325 225.411 289.43 225.516C289.536 225.622 289.595 225.765 289.595 225.914V237.018C289.595 237.167 289.536 237.31 289.43 237.415C289.325 237.521 289.182 237.58 289.032 237.58ZM249.219 236.455H288.47V226.476H249.219V236.455Z" fill="#231F20"/>
<path d="M258.5 237.58C258.352 237.577 258.21 237.517 258.105 237.412C258.001 237.307 257.94 237.166 257.937 237.018V225.914C257.937 225.765 257.997 225.622 258.102 225.516C258.208 225.411 258.351 225.351 258.5 225.351C258.649 225.351 258.792 225.411 258.898 225.516C259.003 225.622 259.062 225.765 259.062 225.914V237.018C259.062 237.167 259.003 237.31 258.898 237.415C258.792 237.521 258.649 237.58 258.5 237.58Z" fill="#231F20"/>
<path d="M268.839 237.58C268.69 237.577 268.549 237.517 268.444 237.412C268.339 237.307 268.279 237.166 268.276 237.018V225.914C268.276 225.765 268.335 225.622 268.441 225.516C268.546 225.411 268.69 225.351 268.839 225.351C268.988 225.351 269.131 225.411 269.236 225.516C269.342 225.622 269.401 225.765 269.401 225.914V237.018C269.401 237.167 269.342 237.31 269.236 237.415C269.131 237.521 268.988 237.58 268.839 237.58Z" fill="#231F20"/>
<path d="M279.144 237.58C278.995 237.58 278.851 237.521 278.746 237.415C278.641 237.31 278.581 237.167 278.581 237.018V225.914C278.581 225.765 278.641 225.622 278.746 225.516C278.851 225.411 278.995 225.351 279.144 225.351C279.293 225.351 279.436 225.411 279.542 225.516C279.647 225.622 279.706 225.765 279.706 225.914V237.018C279.703 237.166 279.643 237.307 279.538 237.412C279.433 237.517 279.292 237.577 279.144 237.58Z" fill="#231F20"/>
<path d="M101.99 238.323C45.335 238.323 2.34873 238.323 1.04373 238.165C0.896386 238.151 0.760607 238.079 0.665838 237.965C0.571068 237.852 0.52495 237.705 0.537482 237.558C0.554498 237.408 0.628225 237.271 0.743403 237.175C0.858581 237.079 1.00639 237.03 1.15623 237.04C4.90248 237.389 377.142 237.04 380.9 237.04C381.049 237.04 381.192 237.099 381.298 237.205C381.403 237.31 381.462 237.453 381.462 237.603C381.462 237.752 381.403 237.895 381.298 238C381.192 238.106 381.049 238.165 380.9 238.165C370.797 238.176 211.07 238.323 101.99 238.323Z" fill="#231F20"/>
<path d="M99.8975 117.318H87.1287V123.899H99.8975V117.318Z" fill="white"/>
<path d="M99.875 124.461H87.1287C86.9795 124.461 86.8365 124.402 86.731 124.296C86.6255 124.191 86.5662 124.048 86.5662 123.899V117.318C86.5662 117.168 86.6255 117.025 86.731 116.92C86.8365 116.814 86.9795 116.755 87.1287 116.755H99.875C100.024 116.755 100.167 116.814 100.273 116.92C100.378 117.025 100.437 117.168 100.437 117.318V123.899C100.437 124.048 100.378 124.191 100.273 124.296C100.167 124.402 100.024 124.461 99.875 124.461ZM87.6687 123.336H99.3125V117.88H87.6912L87.6687 123.336Z" fill="#D1D3D4"/>
</svg>
