<svg width="207" height="507" viewBox="0 0 207 507" fill="none" xmlns="http://www.w3.org/2000/svg">
<path fill-rule="evenodd" clip-rule="evenodd" d="M-111.123 7.73461C-52.6223 -6.33323 13.9268 -1.76823 65.3698 26.0235C118.346 54.6433 144.079 107.163 166.143 157.525C189.217 210.192 226.808 271.575 194.361 320.446C161.472 369.982 69.4234 351.809 15.2843 384.744C-37.6025 416.916 -46.9832 498.528 -111.123 506.281C-173.893 513.868 -224.573 459.856 -266.267 418.776C-301.241 384.318 -313.459 339.54 -325.569 294.994C-336.621 254.343 -351.99 211.436 -333.089 172.986C-314.781 135.739 -263.582 123.042 -228.039 96.5801C-187.733 66.5728 -162.455 20.0786 -111.123 7.73461Z" fill="#65A966" fill-opacity="0.2"/>
</svg>
