<svg width="312" height="507" viewBox="0 0 312 507" fill="none" xmlns="http://www.w3.org/2000/svg">
<path fill-rule="evenodd" clip-rule="evenodd" d="M230.877 7.73461C289.378 -6.33323 355.927 -1.76823 407.37 26.0235C460.346 54.6433 486.079 107.163 508.143 157.525C531.217 210.192 568.808 271.575 536.361 320.446C503.472 369.982 411.423 351.809 357.284 384.744C304.398 416.916 295.017 498.528 230.877 506.281C168.107 513.868 117.427 459.856 75.7329 418.776C40.7594 384.318 28.5411 339.54 16.4306 294.994C5.37892 254.343 -9.98984 211.436 8.91062 172.986C27.2195 135.739 78.4181 123.042 113.961 96.5801C154.267 66.5728 179.545 20.0786 230.877 7.73461Z" fill="#65A966" fill-opacity="0.2"/>
</svg>
