<svg width="12" height="15" viewBox="0 0 12 15" fill="none" xmlns="http://www.w3.org/2000/svg">
<path d="M6 7.51095e-09C4.41904 -7.90421e-05 2.90194 0.623817 1.77843 1.73609C0.654923 2.84836 0.0158096 4.35911 0 5.93998C0 10.05 5.2875 14.625 5.5125 14.82C5.64835 14.9361 5.82124 15 6 15C6.17876 15 6.35165 14.9361 6.4875 14.82C6.75 14.625 12 10.05 12 5.93998C11.9842 4.35911 11.3451 2.84836 10.2216 1.73609C9.09806 0.623817 7.58096 -7.90421e-05 6 7.51095e-09ZM6 8.24997C5.48082 8.24997 4.97331 8.09602 4.54163 7.80758C4.10995 7.51915 3.7735 7.10918 3.57482 6.62952C3.37614 6.14987 3.32415 5.62207 3.42544 5.11287C3.52672 4.60367 3.77673 4.13594 4.14384 3.76883C4.51096 3.40172 4.97869 3.15171 5.48789 3.05043C5.99709 2.94914 6.52489 3.00113 7.00454 3.19981C7.4842 3.39849 7.89417 3.73494 8.18261 4.16662C8.47105 4.59829 8.625 5.10581 8.625 5.62498C8.625 6.32117 8.34844 6.98885 7.85615 7.48113C7.36387 7.97341 6.69619 8.24997 6 8.24997Z" fill="#143568"/>
</svg>
