<svg width="336" height="896" viewBox="0 0 336 896" fill="none" xmlns="http://www.w3.org/2000/svg">
<path fill-rule="evenodd" clip-rule="evenodd" d="M-493.786 -32.0914C-341.193 -68.3015 -167.608 -56.5514 -33.425 14.9834C104.757 88.6499 171.878 223.833 229.431 353.465C289.616 489.025 387.667 647.023 303.032 772.816C217.245 900.321 -22.8519 853.544 -164.067 938.316C-302.016 1021.13 -326.484 1231.19 -493.786 1251.15C-657.513 1270.68 -789.706 1131.65 -898.46 1025.91C-989.684 937.221 -1021.55 821.964 -1053.14 707.305C-1081.97 602.671 -1122.06 492.23 -1072.76 393.259C-1025 297.387 -891.456 264.705 -798.745 196.594C-693.612 119.356 -627.679 -0.318474 -493.786 -32.0914Z" fill="#65A966" fill-opacity="0.2"/>
</svg>
