<svg width="315" height="238" viewBox="0 0 315 238" fill="none" xmlns="http://www.w3.org/2000/svg">
<path d="M206.506 168.493H206.325C205.492 168.448 204.711 168.074 204.153 167.454C203.595 166.834 203.305 166.018 203.348 165.185L207.766 82.3795C207.811 81.5441 208.186 80.7607 208.809 80.2017C209.431 79.6427 210.25 79.3539 211.086 79.3988C211.921 79.4437 212.704 79.8187 213.263 80.4412C213.822 81.0637 214.111 81.8827 214.066 82.7182L209.648 165.516C209.604 166.32 209.254 167.076 208.67 167.629C208.085 168.183 207.311 168.492 206.506 168.493Z" fill="#231F20"/>
<path d="M102.241 138.284C100.69 138.31 99.1489 138.043 97.6973 137.497C91.9485 135.244 90.0822 131.52 89.5309 128.834C87.5149 118.943 99.4692 106.879 100.839 105.54C101.132 105.239 101.482 104.999 101.869 104.836C102.256 104.672 102.671 104.587 103.091 104.586C103.511 104.585 103.927 104.668 104.314 104.83C104.702 104.993 105.053 105.231 105.347 105.53C105.641 105.83 105.872 106.186 106.026 106.576C106.181 106.967 106.256 107.384 106.247 107.804C106.238 108.224 106.145 108.638 105.974 109.021C105.802 109.404 105.556 109.75 105.249 110.037C101.021 114.195 94.689 122.637 95.7049 127.582C95.8388 128.228 96.2404 130.197 99.9968 131.669C106.777 134.331 120.535 123.487 127.614 116.029C128.198 115.463 128.977 115.145 129.79 115.14C130.603 115.135 131.386 115.445 131.976 116.004C132.566 116.563 132.916 117.329 132.955 118.141C132.993 118.953 132.716 119.748 132.182 120.361C130.26 122.322 114.739 138.284 102.241 138.284Z" fill="#231F20"/>
<path d="M117.338 71.0317C117.338 71.0317 110.25 67.6533 108.431 73.6068C106.612 79.5603 106.257 97.3184 104.588 99.358C102.815 101.276 100.91 103.068 98.8865 104.721L106.525 119.896L123.472 112.273C123.472 112.273 117.566 79.2295 117.338 71.0317Z" fill="white"/>
<path d="M106.486 120.282C106.409 120.281 106.335 120.259 106.269 120.219C106.204 120.178 106.151 120.121 106.116 120.054L98.4849 104.886C98.4424 104.804 98.4293 104.71 98.448 104.62C98.4666 104.53 98.5158 104.449 98.5873 104.39C100.588 102.748 102.474 100.972 104.234 99.0745C105.021 98.1138 105.557 92.5855 106.069 87.262C106.58 81.9385 107.116 76.3867 108.006 73.4887C108.189 72.7574 108.533 72.0761 109.012 71.4944C109.492 70.9127 110.095 70.4453 110.778 70.126C113.652 68.866 117.322 70.5906 117.479 70.6694C117.545 70.7009 117.602 70.7498 117.642 70.8109C117.682 70.8719 117.705 70.9428 117.708 71.0159C117.968 79.0957 123.779 111.871 123.835 112.194C123.851 112.285 123.837 112.378 123.794 112.46C123.751 112.541 123.682 112.606 123.598 112.643L106.651 120.282C106.597 120.293 106.54 120.293 106.486 120.282ZM99.3511 104.808L106.667 119.345L122.976 112.005C122.386 108.651 117.259 79.3713 116.905 71.2758C116.117 70.945 113.258 69.8977 111.101 70.8505C110.527 71.1239 110.022 71.5216 109.621 72.0147C109.221 72.5078 108.935 73.084 108.785 73.7013C107.919 76.5205 107.392 82.0094 106.88 87.3172C106.218 94.2314 105.746 98.5154 104.864 99.5943C103.156 101.472 101.314 103.222 99.3511 104.831V104.808Z" fill="#231F20"/>
<path d="M155.925 185.873C155.167 185.882 154.43 185.617 153.852 185.126C153.273 184.636 152.891 183.953 152.775 183.203L142.86 118.384C142.734 117.558 142.941 116.716 143.436 116.042C143.931 115.369 144.673 114.919 145.499 114.793C146.325 114.667 147.167 114.874 147.84 115.368C148.514 115.863 148.963 116.605 149.09 117.431L159.075 182.25C159.138 182.659 159.119 183.077 159.021 183.479C158.922 183.88 158.745 184.259 158.5 184.592C158.255 184.926 157.947 185.208 157.593 185.422C157.239 185.636 156.846 185.779 156.437 185.841C156.267 185.865 156.096 185.876 155.925 185.873Z" fill="#231F20"/>
<path d="M174.652 185.873H174.29C173.878 185.826 173.481 185.698 173.119 185.498C172.757 185.297 172.438 185.027 172.181 184.703C171.923 184.379 171.732 184.007 171.619 183.609C171.505 183.212 171.47 182.795 171.518 182.384C173.825 162.39 177.377 129.716 177.251 125.787C177.086 125.072 177.176 124.323 177.504 123.668C177.832 123.013 178.379 122.493 179.049 122.197C179.72 121.901 180.473 121.849 181.178 122.048C181.883 122.248 182.496 122.687 182.913 123.29C183.826 124.605 184.102 124.999 180.928 154.704C179.424 168.816 177.778 182.967 177.778 183.109C177.684 183.871 177.314 184.574 176.738 185.083C176.163 185.592 175.42 185.873 174.652 185.873Z" fill="#231F20"/>
<path d="M163.989 207.19C191.837 207.19 214.413 204.507 214.413 201.198C214.413 197.888 191.837 195.205 163.989 195.205C136.141 195.205 113.565 197.888 113.565 201.198C113.565 204.507 136.141 207.19 163.989 207.19Z" fill="#E6E7E8"/>
<path d="M162.69 143.702C191.156 143.702 214.232 120.626 214.232 92.1603C214.232 63.6945 191.156 40.6184 162.69 40.6184C134.224 40.6184 111.148 63.6945 111.148 92.1603C111.148 120.626 134.224 143.702 162.69 143.702Z" fill="#3BB96B"/>
<path d="M162.745 40.6026C175.995 40.5946 188.74 45.6823 198.342 54.8124C207.943 63.9424 213.666 76.4154 214.325 89.6486C214.984 102.882 210.529 115.862 201.881 125.9C193.234 135.939 181.057 142.268 167.872 143.576C154.687 144.884 141.504 141.072 131.053 132.928C120.602 124.784 113.682 112.933 111.728 99.8282C109.774 86.7235 112.934 73.3691 120.555 62.5303C128.175 51.6915 139.672 44.1985 152.665 41.6028C155.984 40.9393 159.36 40.6043 162.745 40.6026ZM162.745 39.8151C148.856 39.8005 135.53 45.3039 125.699 55.1146C115.867 64.9253 110.336 78.2397 110.321 92.1288C110.306 106.018 115.81 119.344 125.621 129.175C135.431 139.007 148.746 144.538 162.635 144.553C169.512 144.56 176.323 143.212 182.68 140.587C189.036 137.962 194.813 134.111 199.681 129.253C204.549 124.395 208.413 118.626 211.051 112.275C213.69 105.925 215.051 99.1162 215.059 92.239C215.066 85.3619 213.718 78.5506 211.093 72.1942C208.468 65.8377 204.617 60.0606 199.759 55.1926C194.901 50.3246 189.132 46.461 182.781 43.8226C176.431 41.1841 169.622 39.8224 162.745 39.8151Z" fill="#231F20"/>
<path d="M144.832 92.6421C147.048 92.2124 148.019 87.6003 146.999 82.3407C145.979 77.0811 143.356 73.1656 141.139 73.5954C138.923 74.0251 137.953 78.6372 138.973 83.8968C139.992 89.1564 142.616 93.0718 144.832 92.6421Z" fill="#231F20"/>
<path d="M178.114 86.199C180.33 85.7693 181.3 81.1571 180.281 75.8975C179.261 70.6379 176.638 66.7225 174.421 67.1522C172.205 67.5819 171.235 72.194 172.255 77.4536C173.274 82.7132 175.898 86.6287 178.114 86.199Z" fill="#231F20"/>
<path d="M140.86 130.85C140.587 130.85 140.322 130.755 140.111 130.581C139.9 130.407 139.755 130.166 139.703 129.897C138.498 123.826 140.49 117.534 145.215 112.163C149.94 106.792 156.791 103.13 164.588 101.595C180.755 98.3815 195.906 105.863 198.371 118.266C198.432 118.579 198.366 118.904 198.187 119.168C198.008 119.432 197.732 119.615 197.418 119.676C197.105 119.736 196.781 119.67 196.516 119.491C196.252 119.312 196.069 119.036 196.009 118.723C193.804 107.603 179.897 100.957 165.005 103.91C157.736 105.351 151.334 108.84 146.987 113.73C142.64 118.62 140.947 124.109 142.002 129.441C142.062 129.747 141.998 130.066 141.824 130.326C141.65 130.585 141.38 130.766 141.073 130.827L140.86 130.85Z" fill="#231F20"/>
<path d="M107.884 119.424L100.078 103.649C99.3622 102.203 97.6096 101.611 96.1635 102.327L95.3941 102.707C93.948 103.423 93.3558 105.176 94.0715 106.622L101.878 122.396C102.594 123.843 104.346 124.435 105.792 123.719L106.562 123.338C108.008 122.623 108.6 120.87 107.884 119.424Z" fill="white"/>
<path d="M104.509 124.432C103.887 124.432 103.277 124.258 102.748 123.93C102.219 123.601 101.793 123.131 101.517 122.574L93.7127 106.824C93.5182 106.432 93.4028 106.005 93.3731 105.569C93.3435 105.132 93.4001 104.694 93.5398 104.279C93.6795 103.865 93.8994 103.482 94.1872 103.152C94.4749 102.822 94.8248 102.553 95.2168 102.358L96.0043 101.98C96.3945 101.785 96.8196 101.67 97.2548 101.64C97.6901 101.61 98.1269 101.667 98.5401 101.807C99.3773 102.09 100.068 102.693 100.462 103.485L108.266 119.235C108.46 119.626 108.576 120.053 108.605 120.489C108.635 120.926 108.578 121.364 108.439 121.779C108.299 122.193 108.079 122.576 107.791 122.906C107.503 123.236 107.154 123.505 106.762 123.7L105.974 124.078C105.519 124.304 105.018 124.425 104.509 124.432ZM102.249 122.219C102.547 122.815 103.069 123.27 103.7 123.482C104.332 123.695 105.022 123.648 105.62 123.353L106.407 122.975C107.005 122.679 107.461 122.158 107.675 121.526C107.889 120.894 107.844 120.203 107.549 119.605L99.7449 103.855C99.4449 103.257 98.9215 102.801 98.2881 102.587C97.9747 102.482 97.6437 102.439 97.314 102.462C96.9842 102.485 96.6623 102.573 96.3666 102.721L95.5791 103.099C95.2823 103.244 95.0174 103.448 94.7996 103.696C94.5818 103.945 94.4153 104.234 94.3099 104.548C94.2045 104.861 94.1622 105.192 94.1854 105.522C94.2085 105.852 94.2968 106.174 94.4451 106.469L102.249 122.219Z" fill="#231F20"/>
<path d="M128.659 100.388C132.055 99.7148 134.461 97.4188 134.032 95.2601C133.604 93.1014 130.504 91.8976 127.108 92.5712C123.713 93.2448 121.307 95.5409 121.735 97.6995C122.163 99.8582 125.263 101.062 128.659 100.388Z" fill="white"/>
<path d="M198.866 86.7756C202.262 86.102 204.668 83.806 204.239 81.6473C203.811 79.4887 200.711 78.2848 197.315 78.9585C193.92 79.6321 191.514 81.9281 191.942 84.0868C192.37 86.2454 195.47 87.4493 198.866 86.7756Z" fill="white"/>
<path d="M133.332 78.8673C133.332 78.8673 144.089 74.1423 145.436 66.9445L133.332 78.8673Z" fill="#3BB96B"/>
<path d="M133.332 80.0485C133.047 80.0694 132.763 79.986 132.535 79.8139C132.307 79.6418 132.148 79.3927 132.09 79.1128C132.031 78.8328 132.076 78.5411 132.216 78.2918C132.356 78.0424 132.582 77.8524 132.851 77.7569C132.954 77.7097 143.089 73.1658 144.27 66.6925C144.299 66.5374 144.358 66.3895 144.445 66.2573C144.531 66.125 144.642 66.0111 144.772 65.9218C144.902 65.8326 145.049 65.7699 145.203 65.7373C145.358 65.7047 145.517 65.7028 145.672 65.7318C145.827 65.7607 145.975 65.82 146.107 65.9061C146.239 65.9922 146.353 66.1035 146.443 66.2337C146.532 66.3638 146.595 66.5103 146.627 66.6647C146.66 66.8191 146.662 66.9784 146.633 67.1335C145.192 74.8195 134.308 79.7335 133.844 79.9146C133.686 79.9999 133.511 80.0458 133.332 80.0485Z" fill="#231F20"/>
<path d="M184.22 69.0944C184.22 69.0944 172.455 68.8109 168.47 62.692L184.22 69.0944Z" fill="#3BB96B"/>
<path d="M184.22 70.2678C183.716 70.2678 171.793 69.8898 167.525 63.3299C167.42 63.2031 167.343 63.056 167.299 62.8978C167.254 62.7396 167.244 62.5738 167.267 62.4112C167.29 62.2485 167.347 62.0925 167.434 61.9531C167.521 61.8136 167.636 61.6939 167.772 61.6015C167.908 61.5091 168.061 61.446 168.223 61.4164C168.385 61.3867 168.551 61.3911 168.71 61.4293C168.87 61.4674 169.02 61.5385 169.151 61.638C169.282 61.7374 169.391 61.8631 169.47 62.0069C173.061 67.5194 184.133 67.8659 184.251 67.8738C184.565 67.8738 184.865 67.9982 185.087 68.2198C185.308 68.4413 185.433 68.7417 185.433 69.055C185.433 69.3683 185.308 69.6688 185.087 69.8903C184.865 70.1118 184.565 70.2363 184.251 70.2363L184.22 70.2678Z" fill="#231F20"/>
<path d="M107.21 101.051C107.21 101.051 106.927 87.4825 110.085 82.537C113.243 77.5915 120.11 75.7566 118.629 81.0801C117.149 86.4036 113.117 92.7745 113.117 92.7745C113.117 92.7745 116.086 104.154 112.392 110.95" fill="white"/>
<path d="M112.384 111.36C112.316 111.36 112.248 111.344 112.187 111.312C112.093 111.261 112.022 111.174 111.992 111.071C111.961 110.967 111.972 110.856 112.022 110.761C115.597 104.185 112.746 92.9871 112.715 92.8769C112.701 92.8227 112.698 92.7661 112.706 92.7107C112.714 92.6552 112.733 92.6019 112.762 92.554C112.809 92.491 116.794 86.1674 118.235 80.9699C118.503 80.0249 118.621 78.8122 117.723 78.4105C116.148 77.7097 112.463 79.576 110.431 82.7575C107.376 87.5377 107.612 100.909 107.612 101.043C107.613 101.096 107.604 101.148 107.584 101.198C107.565 101.247 107.537 101.292 107.5 101.33C107.463 101.368 107.42 101.398 107.371 101.419C107.323 101.44 107.271 101.452 107.218 101.453C107.112 101.453 107.01 101.412 106.934 101.338C106.858 101.265 106.813 101.165 106.809 101.059C106.809 100.5 106.565 87.3093 109.754 82.3244C111.888 78.9775 115.928 76.7174 118.062 77.6703C118.708 77.9538 119.692 78.7964 119.031 81.1825C117.66 86.1202 114.18 91.8295 113.518 92.8375C113.896 94.3495 116.243 104.65 112.731 111.147C112.697 111.21 112.647 111.263 112.586 111.3C112.525 111.338 112.456 111.358 112.384 111.36Z" fill="#231F20"/>
<path d="M214.413 152.128C214.413 152.128 212.263 164.248 212.05 168.02C211.838 171.792 206.223 186.519 198.962 187.408C191.701 188.298 202.608 180.14 202.443 174.808C202.277 169.477 198.151 174.194 196.6 179.73C195.048 185.266 192.095 179.47 193.45 174.367C194.804 169.264 195.521 169.194 195.962 164.98C196.403 160.767 195.67 147.246 195.67 147.246L214.413 152.128Z" fill="white"/>
<path d="M198.001 187.873C197.072 187.873 196.497 187.653 196.222 187.196C195.607 186.156 196.796 184.487 198.442 182.164C200.088 179.841 202.096 177.013 202.033 174.832C201.986 173.454 201.671 172.926 201.388 172.895C200.443 172.785 198.135 175.714 196.978 179.848C196.308 182.211 195.403 182.534 194.741 182.361C193.166 181.943 192.071 177.943 193.024 174.273C193.568 172.202 194.017 170.934 194.379 169.918C194.999 168.326 195.387 166.652 195.529 164.949C195.962 160.815 195.237 147.411 195.229 147.27C195.225 147.206 195.237 147.143 195.263 147.085C195.289 147.028 195.329 146.977 195.379 146.939C195.429 146.898 195.487 146.869 195.55 146.855C195.613 146.841 195.679 146.843 195.741 146.86L214.515 151.735C214.614 151.761 214.7 151.823 214.755 151.909C214.81 151.995 214.832 152.098 214.814 152.199C214.814 152.317 212.665 164.343 212.452 168.044C212.239 171.745 206.585 186.881 199.009 187.81C198.675 187.852 198.338 187.873 198.001 187.873ZM201.34 172.084H201.482C202.333 172.186 202.789 173.1 202.844 174.801C202.915 177.25 200.891 180.108 199.104 182.628C197.915 184.298 196.576 186.188 196.922 186.771C197.001 186.897 197.348 187.18 198.907 186.991C205.939 186.133 211.436 171.391 211.641 167.989C211.846 164.587 213.578 154.515 213.948 152.42L196.072 147.774C196.206 150.396 196.733 161.263 196.34 165.028C196.186 166.795 195.783 168.531 195.143 170.186C194.788 171.186 194.355 172.43 193.812 174.47C192.922 177.88 194.032 181.321 194.954 181.557C195.253 181.636 195.741 181.171 196.198 179.612C197.222 175.99 199.545 172.084 201.34 172.084Z" fill="#231F20"/>
<path d="M195.423 150.003L215.71 155.5C217.385 155.954 219.11 154.964 219.564 153.289L219.673 152.886C220.127 151.211 219.137 149.486 217.462 149.032L197.175 143.535C195.5 143.081 193.775 144.071 193.321 145.746L193.212 146.149C192.758 147.824 193.748 149.55 195.423 150.003Z" fill="white"/>
<path d="M216.563 156.026C216.249 156.024 215.937 155.982 215.633 155.9L195.332 150.388C194.423 150.141 193.65 149.544 193.182 148.727C192.714 147.911 192.589 146.942 192.835 146.033L192.945 145.632C193.189 144.727 193.78 143.956 194.59 143.486C195.4 143.015 196.363 142.884 197.269 143.119L217.563 148.632C218.012 148.753 218.433 148.962 218.802 149.246C219.171 149.53 219.48 149.885 219.712 150.288C219.943 150.692 220.093 151.137 220.153 151.599C220.213 152.061 220.181 152.53 220.059 152.979L219.949 153.388C219.744 154.139 219.299 154.802 218.682 155.275C218.065 155.749 217.309 156.007 216.531 156.011L216.563 156.026ZM196.371 143.836C195.77 143.838 195.187 144.036 194.71 144.402C194.233 144.768 193.89 145.28 193.733 145.86L193.623 146.262C193.528 146.608 193.503 146.97 193.549 147.326C193.595 147.682 193.71 148.026 193.888 148.337C194.067 148.649 194.305 148.922 194.589 149.141C194.873 149.361 195.198 149.522 195.544 149.616L215.838 155.129C216.185 155.223 216.546 155.248 216.902 155.203C217.258 155.157 217.602 155.042 217.914 154.863C218.225 154.685 218.499 154.447 218.718 154.163C218.938 153.878 219.099 153.554 219.193 153.207L219.303 152.798C219.4 152.448 219.427 152.082 219.381 151.721C219.335 151.361 219.218 151.013 219.036 150.698C218.854 150.384 218.611 150.109 218.322 149.889C218.032 149.669 217.702 149.51 217.35 149.419L197.056 143.907C196.821 143.853 196.581 143.829 196.34 143.836H196.371Z" fill="#231F20"/>
<path d="M163.989 172.422C163.989 172.422 141.766 168.083 141.585 170.249C141.403 172.414 142.309 190.149 142.309 190.149C142.309 190.149 121.047 201.576 124.323 203.025C127.599 204.474 163.989 197.748 163.989 197.748V172.422Z" fill="white"/>
<path d="M126.165 203.623C125.488 203.665 124.808 203.587 124.157 203.395C123.994 203.335 123.851 203.228 123.748 203.088C123.644 202.948 123.584 202.781 123.574 202.607C123.574 202.103 123.511 200.788 132.898 195.071C136.875 192.653 140.907 190.448 141.892 189.913C141.774 187.645 141.01 172.273 141.183 170.225C141.194 170.116 141.228 170.011 141.282 169.916C141.337 169.821 141.41 169.739 141.498 169.674C143.553 168.099 160.666 171.367 164.068 172.036C164.162 172.053 164.246 172.103 164.307 172.176C164.368 172.25 164.4 172.343 164.398 172.438V197.764C164.398 197.859 164.365 197.951 164.305 198.024C164.245 198.097 164.161 198.147 164.068 198.166C160.729 198.764 134.166 203.623 126.165 203.623ZM143.821 170.028C142.797 170.028 142.152 170.123 141.978 170.328C141.813 172.407 142.711 189.952 142.719 190.133C142.72 190.209 142.702 190.285 142.664 190.351C142.627 190.418 142.572 190.473 142.506 190.511C133.56 195.323 124.338 201.15 124.393 202.576C124.393 202.576 124.393 202.623 124.488 202.654C127.039 203.788 153.247 199.308 163.587 197.41V172.761C155.728 171.233 147.444 170.028 143.821 170.028Z" fill="#231F20"/>
<path d="M166.43 172.422C166.43 172.422 188.654 168.083 188.835 170.249C189.016 172.414 188.11 190.149 188.11 190.149C188.11 190.149 209.373 201.576 206.097 203.025C202.821 204.474 166.43 197.748 166.43 197.748V172.422Z" fill="white"/>
<path d="M204.254 203.623C196.261 203.623 169.69 198.764 166.352 198.15C166.258 198.132 166.174 198.082 166.114 198.008C166.054 197.935 166.021 197.843 166.021 197.748V172.422C166.021 172.327 166.054 172.235 166.114 172.162C166.174 172.089 166.258 172.039 166.352 172.021C169.761 171.359 186.826 168.083 188.921 169.658C189.011 169.721 189.086 169.803 189.141 169.898C189.195 169.994 189.228 170.1 189.236 170.209C189.409 172.265 188.646 187.637 188.527 189.897C192.103 191.826 206.939 200 206.845 202.591C206.835 202.765 206.775 202.933 206.671 203.073C206.568 203.213 206.426 203.319 206.262 203.379C205.612 203.577 204.932 203.66 204.254 203.623ZM166.832 197.41C177.172 199.307 203.38 203.78 205.931 202.654C205.994 202.654 206.034 202.599 206.034 202.576C206.089 201.15 196.867 195.323 187.921 190.511C187.854 190.474 187.798 190.419 187.761 190.353C187.723 190.286 187.705 190.21 187.708 190.133C187.708 189.952 188.606 172.407 188.433 170.288C187.645 169.375 176.896 170.808 166.832 172.761V197.41Z" fill="#231F20"/>
<path d="M108.289 35.5705C106.99 33.3419 103.982 32.5623 101.477 33.208C98.9731 33.8538 96.902 35.5705 95.0986 37.4133C94.5103 37.9059 94.1121 38.5882 93.9725 39.3427C93.9253 40.1302 94.6498 40.9177 95.3664 40.6657C91.9093 40.0514 89.0664 43.3825 87.5465 46.5404C86.759 48.1154 86.1526 49.9267 86.8614 51.4938C87.5701 53.0609 89.4916 53.8563 91.2556 54.0453C94.6147 54.4024 97.9797 53.4268 100.627 51.3284C101.68 52.3532 102.976 53.0933 104.393 53.4793C105.811 53.8652 107.304 53.8843 108.731 53.5346C110.158 53.1849 111.472 52.4781 112.551 51.4805C113.629 50.4829 114.437 49.2273 114.896 47.8319C114.235 48.2493 115.274 49.0919 116.046 49.1313C117.928 49.2415 119.873 49.3439 121.63 48.6509C125.614 47.0759 126.087 37.4842 123.425 34.3578C120.606 31.0267 110.116 31.1999 108.289 35.5705Z" fill="white"/>
<path d="M92.6573 54.5099C92.1732 54.5111 91.6895 54.4848 91.2083 54.4311C88.8852 54.1713 87.1685 53.1554 86.4833 51.6434C85.6958 49.8636 86.4282 47.8791 87.1685 46.3514C87.9087 44.8236 90.1846 40.7365 93.7677 40.2168C93.6159 39.9344 93.545 39.6155 93.563 39.2954C93.7036 38.4447 94.1418 37.6717 94.7993 37.114C96.3743 35.4681 98.5951 33.4836 101.367 32.7906C103.667 32.2236 106.635 32.7906 108.242 34.783C109.195 33.3104 111.211 32.2473 113.896 31.8299C117.369 31.2865 121.858 31.8771 123.724 34.0664C125.402 36.0351 125.984 40.5239 125.047 44.3039C124.433 46.7451 123.275 48.4225 121.771 49.0289C119.905 49.7613 117.834 49.6431 116.015 49.5408C115.582 49.5017 115.17 49.3405 114.825 49.0761C114.22 50.3489 113.325 51.4622 112.211 52.327C111.098 53.1918 109.798 53.7842 108.415 54.0566C107.033 54.3291 105.605 54.2741 104.247 53.8961C102.889 53.5181 101.639 52.8275 100.595 51.8796C98.3038 53.5926 95.5183 54.5156 92.6573 54.5099ZM94.5552 40.9806C91.7202 40.9806 89.2947 43.8471 87.9087 46.7058C87.2472 48.076 86.57 49.8558 87.2315 51.3126C88.019 53.0688 90.3815 53.5176 91.3028 53.62C94.5568 53.9763 97.8193 53.0275 100.375 50.9819C100.449 50.9176 100.544 50.8822 100.643 50.8822C100.741 50.8822 100.836 50.9176 100.91 50.9819C101.872 51.9326 103.053 52.6312 104.35 53.0158C105.646 53.4003 107.017 53.4588 108.342 53.1861C109.666 52.9135 110.903 52.318 111.942 51.4527C112.981 50.5874 113.79 49.4789 114.298 48.2256C114.278 48.0701 114.304 47.912 114.374 47.7717C114.445 47.6314 114.555 47.5153 114.692 47.4381C114.759 47.3889 114.84 47.3623 114.924 47.3623C115.007 47.3623 115.089 47.3889 115.156 47.4381C115.222 47.4883 115.27 47.5578 115.294 47.637C115.318 47.7162 115.317 47.8009 115.29 47.8791C115.29 47.9894 115.219 48.0996 115.18 48.2099C115.419 48.4561 115.736 48.6119 116.078 48.6509C117.818 48.7533 119.787 48.8635 121.488 48.1941C122.74 47.698 123.732 46.2254 124.275 44.044C125.142 40.5711 124.622 36.3029 123.118 34.5468C121.614 32.7906 117.763 32.0819 114.03 32.6331C111.258 33.0663 109.305 34.2081 108.667 35.7201C108.639 35.7917 108.59 35.8536 108.527 35.8983C108.464 35.9429 108.39 35.9686 108.313 35.9721C108.238 35.9772 108.163 35.9615 108.096 35.9268C108.03 35.892 107.974 35.8396 107.935 35.7753C106.675 33.6096 103.777 33.0348 101.572 33.586C98.9967 34.2239 96.9177 36.1139 95.39 37.681C94.876 38.1085 94.521 38.6966 94.382 39.3505C94.381 39.5027 94.4154 39.653 94.4824 39.7896C94.5493 39.9262 94.647 40.0455 94.7678 40.138C94.9805 40.138 95.201 40.138 95.4293 40.2168C95.5168 40.2321 95.5966 40.276 95.6564 40.3415C95.7163 40.4071 95.7527 40.4906 95.7601 40.579C95.7672 40.6683 95.7449 40.7575 95.6966 40.8328C95.6482 40.9082 95.5765 40.9657 95.4923 40.9964C95.1835 41.1066 94.8436 41.0896 94.5473 40.9491L94.5552 40.9806Z" fill="#D1D3D4"/>
<path d="M114.747 48.2493C114.301 48.2419 113.857 48.2051 113.416 48.139C111.801 47.9028 109.754 47.2491 109.171 45.4458C109.139 45.3434 109.148 45.2324 109.196 45.1367C109.245 45.0409 109.329 44.9681 109.431 44.9339C109.533 44.9015 109.644 44.9105 109.74 44.9591C109.836 45.0077 109.909 45.092 109.943 45.1938C110.415 46.6743 112.4 47.1704 113.534 47.3358C114.379 47.5053 115.252 47.4647 116.078 47.2176C116.741 46.9236 117.32 46.4689 117.763 45.8946C118.449 45.0691 118.982 44.1277 119.338 43.1148C119.373 43.0103 119.449 42.9243 119.548 42.8756C119.647 42.8268 119.761 42.8194 119.865 42.8549C119.97 42.8904 120.056 42.9659 120.105 43.0649C120.153 43.1638 120.161 43.2781 120.125 43.3825C119.741 44.4901 119.156 45.5178 118.401 46.4144C117.873 47.1018 117.179 47.6438 116.385 47.9894C115.86 48.1779 115.304 48.2661 114.747 48.2493Z" fill="#D1D3D4"/>
<path d="M199.805 34.4444C198.499 34.1535 197.131 34.3524 195.963 35.0034C194.794 35.6544 193.905 36.712 193.465 37.9754C193.024 39.2388 193.064 40.6199 193.575 41.8563C194.086 43.0927 195.033 44.0982 196.237 44.6819C196.863 44.8741 197.453 45.1667 197.986 45.5481C198.335 45.9295 198.631 46.3559 198.867 46.816C200.521 49.462 204.049 50.5173 207.105 49.8951C210.16 49.273 212.775 47.2413 214.806 44.8709C214.55 45.1083 214.397 45.4371 214.381 45.7863C214.364 46.1356 214.486 46.4772 214.72 46.7373C215.218 47.2472 215.862 47.5909 216.563 47.7216C218.712 48.2965 221.099 48.5091 223.083 47.4933C224.069 47.0272 224.862 46.2346 225.33 45.2501C225.798 44.2655 225.911 43.1494 225.65 42.091C226.044 43.4376 227.745 42.8785 228.328 42.2721C229.115 41.4846 229.037 39.2088 228.903 38.2244C228.509 35.1846 225.666 32.0031 222.343 32.263C221.682 32.3971 221.006 32.4342 220.335 32.3733C219.24 32.137 218.547 31.066 217.547 30.5541C216.946 30.2928 216.289 30.1875 215.636 30.2481C214.984 30.3087 214.357 30.5331 213.814 30.9006C212.726 31.6357 211.788 32.5711 211.05 33.6569C210.593 32.5386 209.152 32.2709 207.947 32.2866C204.797 32.326 203.01 32.9718 200.86 35.0114C200.533 34.7789 200.179 34.5884 199.805 34.4444Z" fill="white"/>
<path d="M205.341 50.5015C204.006 50.5402 202.682 50.2442 201.491 49.6403C200.3 49.0365 199.279 48.144 198.521 47.0444C198.45 46.942 198.387 46.8318 198.324 46.7215C198.163 46.3605 197.921 46.0417 197.617 45.7903C197.312 45.5388 196.953 45.3616 196.568 45.2725L196.088 45.0756C194.751 44.475 193.688 43.3955 193.109 42.0499C192.529 40.7044 192.475 39.1905 192.956 37.8067C193.437 36.423 194.42 35.2698 195.709 34.5745C196.999 33.8792 198.502 33.6923 199.923 34.0506C200.238 34.1545 200.534 34.3117 200.797 34.5153C202.899 32.6095 204.734 31.948 207.939 31.9086C209.42 31.9086 210.483 32.2551 211.089 32.9639C211.766 32.0135 212.612 31.1964 213.586 30.5541C214.188 30.1498 214.883 29.9045 215.606 29.8412C216.329 29.7778 217.056 29.8985 217.72 30.1919C218.155 30.4322 218.559 30.7229 218.925 31.0581C219.249 31.4572 219.682 31.7526 220.172 31.9079C220.662 32.0633 221.187 32.0717 221.681 31.9323L222.296 31.8614C225.894 31.57 228.879 34.9563 229.304 38.1614C229.304 38.2953 229.722 41.4453 228.603 42.5478C228.299 42.8347 227.932 43.0478 227.532 43.1707C227.132 43.2936 226.709 43.323 226.296 43.2565H226.209C226.181 44.2179 225.889 45.1529 225.365 45.9598C224.842 46.7666 224.107 47.4142 223.241 47.8319C221.437 48.7296 219.146 48.8163 216.437 48.0918C215.671 47.9567 214.965 47.5913 214.413 47.0444C214.245 46.8355 214.121 46.5943 214.05 46.3356C212.205 48.3178 209.817 49.712 207.183 50.344C206.576 50.4587 205.959 50.5115 205.341 50.5015ZM198.568 34.6806C197.506 34.6883 196.471 35.0133 195.595 35.6139C194.72 36.2146 194.044 37.0633 193.654 38.0511C193.283 39.2555 193.356 40.5528 193.859 41.7083C194.361 42.8638 195.261 43.8013 196.395 44.3511L196.859 44.5323C197.331 44.6553 197.769 44.8807 198.143 45.1924C198.518 45.5041 198.819 45.8944 199.025 46.3356L199.206 46.6349C200.679 48.9974 203.931 50.1786 207.026 49.5408C209.842 48.8291 212.356 47.2339 214.2 44.989C214.296 44.8209 214.428 44.6758 214.586 44.5638C214.667 44.5108 214.765 44.4886 214.862 44.5011C214.958 44.5136 215.047 44.56 215.112 44.632C215.177 44.7039 215.215 44.7968 215.218 44.894C215.221 44.9911 215.19 45.0862 215.129 45.1623L214.869 45.4536C214.842 45.5218 214.823 45.5933 214.814 45.6663C214.779 45.9648 214.864 46.2651 215.051 46.501C215.501 46.9146 216.062 47.1883 216.665 47.2885C219.177 47.9658 221.28 47.8949 222.894 47.0916C223.797 46.6717 224.526 45.9514 224.957 45.0538C225.388 44.1562 225.494 43.1368 225.257 42.1698C225.226 42.0653 225.239 41.9532 225.291 41.8579C225.344 41.7626 225.432 41.6921 225.536 41.6618C225.641 41.6315 225.753 41.644 225.848 41.6964C225.943 41.7488 226.014 41.837 226.044 41.9414C226.067 42.0605 226.124 42.1704 226.208 42.2583C226.292 42.3462 226.399 42.4083 226.517 42.4375C226.793 42.4685 227.073 42.4403 227.338 42.3548C227.602 42.2692 227.846 42.1283 228.052 41.9414C228.627 41.3665 228.666 39.4293 228.509 38.2401C228.139 35.3894 225.438 32.389 222.382 32.6331L221.807 32.6961C221.199 32.8521 220.56 32.836 219.961 32.6496C219.361 32.4633 218.826 32.1141 218.413 31.6409C218.098 31.3392 217.749 31.075 217.374 30.8534C216.832 30.6277 216.243 30.5398 215.659 30.5975C215.075 30.6552 214.514 30.8568 214.027 31.1841C212.993 31.9053 212.104 32.8134 211.404 33.8616C211.36 33.918 211.302 33.9619 211.236 33.9889C211.17 34.0159 211.098 34.0251 211.027 34.0156C210.956 34.006 210.889 33.978 210.832 33.9344C210.775 33.8909 210.731 33.8332 210.704 33.7671C210.294 32.7749 208.814 32.641 207.987 32.6568C204.876 32.6568 203.214 33.3261 201.159 35.2634C201.094 35.323 201.012 35.3605 200.924 35.3704C200.836 35.3803 200.748 35.3622 200.671 35.3185L200.348 35.1059C200.162 34.9603 199.955 34.8435 199.734 34.7594C199.35 34.6839 198.958 34.6574 198.568 34.6806Z" fill="#D1D3D4"/>
<path d="M215.625 45.5166C215.362 45.5128 215.099 45.4944 214.838 45.4615C213.562 45.2692 212.368 44.7131 211.4 43.8597C210.432 43.0062 209.731 41.8918 209.381 40.6499C209.366 40.5987 209.362 40.5452 209.369 40.4924C209.375 40.4397 209.392 40.3888 209.419 40.3426C209.445 40.2965 209.48 40.256 209.522 40.2236C209.565 40.1912 209.613 40.1674 209.664 40.1538C209.768 40.1273 209.879 40.1431 209.972 40.1976C210.065 40.2522 210.132 40.3411 210.16 40.4451C210.452 41.5425 211.063 42.5288 211.915 43.2795C212.767 44.0303 213.822 44.5118 214.948 44.6635C216.073 44.8151 217.218 44.63 218.239 44.1315C219.259 43.6331 220.109 42.8436 220.681 41.8626C220.708 41.816 220.744 41.7752 220.787 41.7427C220.83 41.7102 220.879 41.6866 220.931 41.6734C220.983 41.6602 221.037 41.6576 221.09 41.6657C221.144 41.6739 221.195 41.6926 221.24 41.7209C221.331 41.7765 221.396 41.865 221.423 41.9679C221.449 42.0707 221.435 42.1798 221.382 42.2721C220.781 43.2606 219.935 44.078 218.927 44.6461C217.919 45.2142 216.782 45.514 215.625 45.5166Z" fill="#D1D3D4"/>
<path d="M199.104 38.7993C199.004 38.2327 199.062 37.6498 199.271 37.1138C199.479 36.5778 199.831 36.1091 200.287 35.7586C200.743 35.408 201.286 35.1891 201.858 35.1254C202.429 35.0617 203.007 35.1557 203.529 35.3973" fill="white"/>
<path d="M199.104 39.1694C199.008 39.1709 198.916 39.1384 198.842 39.0778C198.768 39.0173 198.719 38.9325 198.702 38.8386C198.587 38.198 198.651 37.5381 198.886 36.9311C199.121 36.3241 199.518 35.7933 200.034 35.3967C200.55 35.0001 201.165 34.753 201.812 34.6822C202.459 34.6115 203.113 34.7199 203.703 34.9956C203.794 35.0457 203.863 35.1286 203.895 35.2276C203.927 35.3265 203.921 35.434 203.877 35.5283C203.833 35.6226 203.754 35.6965 203.657 35.7351C203.561 35.7736 203.453 35.7739 203.356 35.7359C202.902 35.5225 202.398 35.4383 201.899 35.4924C201.4 35.5466 200.926 35.737 200.528 36.0428C200.131 36.3486 199.825 36.7581 199.644 37.2263C199.464 37.6944 199.416 38.2032 199.505 38.6969C199.524 38.8034 199.499 38.9128 199.437 39.0013C199.375 39.0898 199.281 39.1502 199.175 39.1694H199.104Z" fill="#D1D3D4"/>
<path d="M101.635 57.1323C101.633 57.0285 101.591 56.9295 101.517 56.8561C101.444 56.7827 101.345 56.7405 101.241 56.7385C101.137 56.7385 101.037 56.78 100.963 56.8539C100.889 56.9277 100.847 57.0278 100.847 57.1323C100.981 58.3214 101.123 59.4948 101.257 60.6996C101.259 60.8034 101.301 60.9024 101.374 60.9758C101.448 61.0492 101.547 61.0914 101.651 61.0934C101.754 61.0914 101.853 61.0492 101.927 60.9758C102 60.9024 102.042 60.8034 102.044 60.6996C101.911 59.5105 101.769 58.3214 101.635 57.1323Z" fill="#D1D3D4"/>
<path d="M109.463 62.2746C109.437 62.2297 109.402 62.1902 109.361 62.1585C109.32 62.1269 109.273 62.1036 109.223 62.0901C109.173 62.0766 109.121 62.073 109.069 62.0797C109.018 62.0864 108.968 62.1031 108.923 62.129C108.878 62.1548 108.839 62.1893 108.807 62.2304C108.775 62.2715 108.752 62.3184 108.739 62.3685C108.725 62.4186 108.721 62.4709 108.728 62.5223C108.735 62.5738 108.752 62.6234 108.777 62.6684C108.879 62.817 108.966 62.9753 109.037 63.1409V63.2039V63.2984C109.037 63.385 109.1 63.4716 109.124 63.5583C109.173 63.7234 109.21 63.8918 109.234 64.0623V64.1331C109.234 64.1331 109.234 64.204 109.234 64.2355C109.234 64.267 109.234 64.4324 109.234 64.5269C109.234 64.6313 109.276 64.7315 109.349 64.8053C109.423 64.8792 109.523 64.9206 109.628 64.9206C109.732 64.9206 109.832 64.8792 109.906 64.8053C109.98 64.7315 110.022 64.6313 110.022 64.5269C110.041 63.7395 109.848 62.9614 109.463 62.2746Z" fill="#D1D3D4"/>
<path d="M115.763 59.101C115.66 58.5104 115.566 57.9198 115.463 57.3291C115.436 57.2292 115.37 57.1442 115.28 57.0926C115.19 57.041 115.083 57.027 114.983 57.0535C114.884 57.0846 114.8 57.1524 114.748 57.2431C114.697 57.3338 114.683 57.4406 114.707 57.5418C114.802 58.1324 114.904 58.723 114.999 59.3136C115.028 59.4142 115.096 59.4993 115.187 59.5508C115.278 59.6022 115.386 59.6161 115.487 59.5893C115.586 59.5582 115.67 59.4904 115.721 59.3997C115.773 59.309 115.787 59.2022 115.763 59.101Z" fill="#D1D3D4"/>
<path d="M206.806 57.0378L206.207 54.9666C206.194 54.9149 206.17 54.8664 206.138 54.8237C206.106 54.7811 206.065 54.7453 206.019 54.7182C205.973 54.6911 205.922 54.6734 205.869 54.6661C205.817 54.6587 205.763 54.6618 205.711 54.6753C205.659 54.6887 205.611 54.7122 205.568 54.7444C205.525 54.7766 205.49 54.8169 205.463 54.863C205.435 54.909 205.418 54.96 205.41 55.0129C205.403 55.0658 205.406 55.1197 205.42 55.1714L206.01 57.2425C206.037 57.3469 206.105 57.4363 206.198 57.491C206.291 57.5456 206.402 57.561 206.506 57.5339C206.611 57.5067 206.7 57.4392 206.755 57.3462C206.809 57.2531 206.825 57.1422 206.798 57.0378H206.806Z" fill="#D1D3D4"/>
<path d="M214.988 59.4081C214.884 59.4102 214.785 59.4523 214.711 59.5257C214.638 59.5991 214.596 59.6981 214.594 59.8019V62.1644C214.594 62.2688 214.635 62.369 214.709 62.4428C214.783 62.5167 214.883 62.5581 214.988 62.5581C215.091 62.5561 215.19 62.514 215.264 62.4406C215.337 62.3672 215.379 62.2682 215.381 62.1644V59.8019C215.379 59.6981 215.337 59.5991 215.264 59.5257C215.19 59.4523 215.091 59.4102 214.988 59.4081Z" fill="#D1D3D4"/>
<path d="M222.808 59.8019C222.804 59.6987 222.761 59.6008 222.688 59.5278C222.615 59.4548 222.517 59.412 222.414 59.4081C222.217 59.4081 221.989 59.5893 222.02 59.8019L222.469 63.3614C222.469 63.4658 222.51 63.566 222.584 63.6398C222.658 63.7137 222.758 63.7551 222.863 63.7551C222.967 63.7551 223.067 63.7137 223.141 63.6398C223.215 63.566 223.256 63.4658 223.256 63.3614L222.808 59.8019Z" fill="#D1D3D4"/>
<path d="M219.122 77.1505C219.018 77.1525 218.919 77.1947 218.846 77.2681C218.772 77.3415 218.73 77.4405 218.728 77.5443V79.0169C218.728 79.1213 218.77 79.2215 218.844 79.2953C218.917 79.3692 219.018 79.4107 219.122 79.4107C219.226 79.4107 219.327 79.3692 219.4 79.2953C219.474 79.2215 219.516 79.1213 219.516 79.0169V77.5443C219.516 77.4398 219.474 77.3397 219.4 77.2659C219.327 77.192 219.226 77.1505 219.122 77.1505Z" fill="#D1D3D4"/>
<path d="M227.21 85.4114C226.91 84.427 226.619 83.4426 226.32 82.4583C226.289 82.3588 226.221 82.275 226.13 82.2238C226.039 82.1726 225.933 82.1579 225.831 82.1826C225.733 82.212 225.65 82.2786 225.6 82.3683C225.55 82.4581 225.537 82.5638 225.564 82.663C225.855 83.6553 226.154 84.6396 226.454 85.624C226.468 85.6757 226.492 85.7242 226.524 85.7666C226.557 85.809 226.598 85.8446 226.644 85.8713C226.691 85.898 226.742 85.9153 226.795 85.9222C226.848 85.9291 226.902 85.9254 226.954 85.9115C227.005 85.8975 227.054 85.8735 227.096 85.8408C227.139 85.8081 227.174 85.7674 227.201 85.721C227.228 85.6745 227.245 85.6233 227.252 85.5702C227.259 85.517 227.255 85.4631 227.241 85.4114H227.21Z" fill="#D1D3D4"/>
<path d="M95.8861 66.3145C95.8841 66.2107 95.842 66.1117 95.7686 66.0383C95.6952 65.9649 95.5962 65.9228 95.4924 65.9208C95.388 65.9208 95.2878 65.9623 95.214 66.0361C95.1401 66.1099 95.0986 66.2101 95.0986 66.3145C95.1931 67.1965 95.2876 68.0864 95.39 68.9763C95.39 69.0807 95.4315 69.1809 95.5053 69.2547C95.5792 69.3285 95.6793 69.37 95.7838 69.37C95.8876 69.368 95.9865 69.3259 96.0599 69.2525C96.1334 69.1791 96.1755 69.0801 96.1775 68.9763C96.0751 68.0864 95.9806 67.1965 95.8861 66.3145Z" fill="#D1D3D4"/>
<path d="M99.7448 83.356C99.4462 82.2319 99.366 81.061 99.5085 79.9068C99.5085 79.8023 99.467 79.7022 99.3932 79.6283C99.3194 79.5545 99.2192 79.513 99.1148 79.513C99.0103 79.513 98.9102 79.5545 98.8364 79.6283C98.7625 79.7022 98.721 79.8023 98.721 79.9068C98.5746 81.1328 98.6628 82.3756 98.9809 83.5686C99.0091 83.6699 99.0764 83.7559 99.1679 83.8076C99.2595 83.8593 99.3679 83.8725 99.4692 83.8443C99.5704 83.8161 99.6564 83.7488 99.7081 83.6572C99.7598 83.5657 99.773 83.4573 99.7448 83.356Z" fill="#D1D3D4"/>
<path d="M103.824 69.7559C103.72 69.7579 103.621 69.8 103.548 69.8735C103.475 69.9469 103.432 70.0458 103.43 70.1496V71.9215C103.43 72.0259 103.472 72.1261 103.546 72.1999C103.62 72.2738 103.72 72.3153 103.824 72.3153C103.929 72.3153 104.029 72.2738 104.103 72.1999C104.176 72.1261 104.218 72.0259 104.218 71.9215V70.1496C104.216 70.0458 104.174 69.9469 104.1 69.8735C104.027 69.8 103.928 69.7579 103.824 69.7559Z" fill="#D1D3D4"/>
</svg>
