<svg width="315" height="238" viewBox="0 0 315 238" fill="none" xmlns="http://www.w3.org/2000/svg">
<path d="M114.069 119.046C113.444 119.045 112.832 118.859 112.313 118.51C68.6778 89.1363 60.2201 60.8965 59.85 59.7074C59.6517 58.9141 59.7697 58.0748 60.179 57.367C60.5883 56.6591 61.2568 56.1381 62.0432 55.9141C62.8296 55.6902 63.6723 55.7808 64.3931 56.1668C65.1139 56.5529 65.6564 57.2041 65.9058 57.9828C65.9846 58.2426 74.2691 85.3248 115.802 113.281C116.363 113.658 116.787 114.205 117.013 114.842C117.239 115.479 117.255 116.171 117.057 116.817C116.859 117.463 116.459 118.029 115.915 118.43C115.372 118.831 114.714 119.047 114.038 119.046H114.069Z" fill="#231F20"/>
<path d="M223.996 115.36C207.719 115.36 182.503 94.696 179.29 91.9949C178.924 91.7473 178.614 91.4256 178.381 91.0505C178.148 90.6754 177.996 90.2555 177.935 89.8179C177.874 89.3802 177.907 88.9348 178.029 88.5104C178.152 88.086 178.363 87.6922 178.648 87.3546C178.933 87.0169 179.285 86.743 179.683 86.5505C180.081 86.3581 180.514 86.2514 180.956 86.2375C181.398 86.2236 181.837 86.3027 182.246 86.4697C182.655 86.6367 183.024 86.8879 183.33 87.2069C189.248 92.0431 195.474 96.4888 201.97 100.516C214.035 107.879 223.398 110.753 227.65 108.312C237.061 102.981 236.533 81.2928 235.525 73.3863C235.474 72.9757 235.503 72.559 235.613 72.1599C235.722 71.7608 235.909 71.3871 236.163 71.0603C236.416 70.7334 236.732 70.4597 237.092 70.2548C237.451 70.0499 237.848 69.9179 238.258 69.8661C238.669 69.8144 239.085 69.8441 239.484 69.9534C239.884 70.0628 240.257 70.2497 240.584 70.5034C240.911 70.7572 241.185 71.0728 241.39 71.4323C241.594 71.7918 241.727 72.1882 241.778 72.5988C242.391 78.1957 242.483 83.8373 242.054 89.4513C241.03 101.933 237.226 110.123 230.745 113.793C228.671 114.895 226.344 115.435 223.996 115.36Z" fill="#231F20"/>
<path d="M98.5556 182.778C97.7202 182.785 96.9161 182.46 96.3202 181.875C95.7242 181.289 95.3854 180.491 95.3781 179.655C95.3707 178.82 95.6956 178.016 96.2812 177.42C96.8667 176.824 97.6651 176.485 98.5005 176.478C108.084 176.297 115.471 173.438 120.464 167.957C128.803 158.806 127.898 145.324 127.89 145.191C127.859 144.777 127.91 144.361 128.039 143.967C128.169 143.573 128.375 143.208 128.646 142.894C128.916 142.579 129.246 142.321 129.616 142.134C129.987 141.947 130.39 141.835 130.804 141.804C131.217 141.773 131.633 141.824 132.027 141.954C132.421 142.083 132.786 142.289 133.1 142.56C133.415 142.83 133.673 143.16 133.86 143.531C134.047 143.901 134.159 144.304 134.19 144.718C134.237 145.38 135.285 161.059 125.134 172.202C118.936 179.006 110.014 182.565 98.6265 182.778H98.5556Z" fill="#231F20"/>
<path d="M217.232 176.242C216.517 176.241 215.824 175.998 215.266 175.551C214.708 175.105 214.318 174.482 214.161 173.785C208.94 150.695 176.668 149.947 176.361 149.939C175.947 149.933 175.539 149.845 175.159 149.681C174.779 149.517 174.435 149.28 174.147 148.983C173.565 148.383 173.245 147.577 173.258 146.742C173.27 145.906 173.614 145.11 174.214 144.528C174.814 143.946 175.62 143.627 176.455 143.639C183.013 143.912 189.496 145.149 195.694 147.309C209.176 152.073 217.689 160.751 220.319 172.399C220.503 173.211 220.357 174.063 219.915 174.768C219.472 175.474 218.768 175.975 217.956 176.163C217.719 176.218 217.476 176.245 217.232 176.242Z" fill="#231F20"/>
<path d="M158.988 221.358C179.878 221.358 196.812 218.674 196.812 215.365C196.812 212.055 179.878 209.372 158.988 209.372C138.099 209.372 121.165 212.055 121.165 215.365C121.165 218.674 138.099 221.358 158.988 221.358Z" fill="#E6E7E8"/>
<path d="M155.327 161.256C183.792 161.256 206.868 138.179 206.868 109.714C206.868 81.2479 183.792 58.1718 155.327 58.1718C126.861 58.1718 103.785 81.2479 103.785 109.714C103.785 138.179 126.861 161.256 155.327 161.256Z" fill="#3BB96B"/>
<path d="M155.327 58.1718C165.521 58.1702 175.487 61.1918 183.964 66.8543C192.441 72.5169 199.048 80.5661 202.951 89.984C206.853 99.4019 207.875 109.765 205.887 119.764C203.899 129.763 198.991 138.947 191.783 146.156C184.575 153.366 175.391 158.275 165.393 160.265C155.394 162.254 145.03 161.234 135.612 157.333C126.193 153.432 118.143 146.826 112.479 138.35C106.816 129.873 103.793 119.908 103.793 109.714C103.793 96.0453 109.222 82.9366 118.886 73.2708C128.55 63.6051 141.658 58.1739 155.327 58.1718ZM155.327 57.3843C144.972 57.3843 134.85 60.4547 126.241 66.2074C117.631 71.96 110.921 80.1364 106.959 89.7027C102.996 99.2689 101.959 109.795 103.979 119.951C106 130.106 110.986 139.435 118.307 146.756C125.629 154.078 134.957 159.064 145.113 161.084C155.268 163.104 165.795 162.068 175.361 158.105C184.927 154.143 193.104 147.432 198.856 138.823C204.609 130.214 207.68 120.092 207.68 109.737C207.669 95.8534 202.151 82.5409 192.336 72.7213C182.52 62.9017 169.21 57.3773 155.327 57.3607V57.3843Z" fill="#231F20"/>
<path d="M142.459 97.7279C142.145 97.7279 141.845 97.6034 141.624 97.3819C141.402 97.1604 141.278 96.8599 141.278 96.5466C141.278 91.4121 139.521 88.0101 138.364 88.0101C137.206 88.0101 135.45 91.4121 135.45 96.5466C135.45 96.8599 135.326 97.1604 135.104 97.3819C134.883 97.6034 134.582 97.7279 134.269 97.7279C133.955 97.7279 133.655 97.6034 133.434 97.3819C133.212 97.1604 133.088 96.8599 133.088 96.5466C133.088 91.2625 134.938 85.6476 138.364 85.6476C141.789 85.6476 143.64 91.2625 143.64 96.5466C143.64 96.8599 143.516 97.1604 143.294 97.3819C143.073 97.6034 142.772 97.7279 142.459 97.7279Z" fill="#231F20"/>
<path d="M176.4 97.7279C176.087 97.7279 175.786 97.6034 175.565 97.3819C175.343 97.1604 175.219 96.8599 175.219 96.5466C175.219 91.4121 173.463 88.0101 172.305 88.0101C171.147 88.0101 169.391 91.4121 169.391 96.5466C169.391 96.8599 169.267 97.1604 169.045 97.3819C168.824 97.6034 168.523 97.7279 168.21 97.7279C167.897 97.7279 167.596 97.6034 167.375 97.3819C167.153 97.1604 167.029 96.8599 167.029 96.5466C167.029 91.2625 168.879 85.6476 172.305 85.6476C175.731 85.6476 177.581 91.2625 177.581 96.5466C177.581 96.8599 177.457 97.1604 177.235 97.3819C177.014 97.6034 176.713 97.7279 176.4 97.7279Z" fill="#231F20"/>
<path d="M184.039 120.51C184.039 132.528 171.187 142.261 155.327 142.261C139.466 142.261 126.614 132.528 126.614 120.51H184.039Z" fill="#231F20"/>
<path d="M230.1 84.4428C226.595 82.3244 224.43 74.4494 225.012 70.126C225.595 65.8027 227.721 66.4169 230.06 66.0074C229.816 64.2355 229.627 62.2432 230.745 60.8493C231.361 60.1426 232.143 59.6012 233.021 59.2743C237.896 57.2009 243.382 57.0881 248.338 58.9593C249.287 59.2673 250.142 59.8089 250.827 60.5343C251.387 61.2985 251.762 62.1829 251.921 63.1173C253.945 71.9058 249.614 77.623 248.59 85.8367L238.683 85.1437C236.471 84.994 232.131 85.5768 230.186 84.4743C230.156 84.468 230.127 84.4574 230.1 84.4428Z" fill="white"/>
<path d="M248.59 86.2619L238.683 85.5768C238.053 85.5295 237.211 85.5768 236.321 85.5768C234.061 85.6319 231.493 85.687 230.021 84.8601L229.918 84.805C226.083 82.4425 224.075 74.2761 224.634 70.0866C225.17 66.1491 226.997 65.9601 228.926 65.7554L229.635 65.6766C229.407 63.8496 229.344 61.999 230.462 60.5973C231.123 59.8548 231.96 59.289 232.895 58.9514C237.865 56.8243 243.466 56.7085 248.519 58.6285C249.532 58.9528 250.445 59.5302 251.173 60.3059C251.775 61.12 252.177 62.0641 252.346 63.0621C253.669 68.803 252.346 73.2051 250.937 77.8671C250.067 80.4895 249.427 83.1823 249.023 85.9154C249.009 86.0178 248.957 86.1109 248.876 86.1754C248.795 86.2399 248.693 86.2709 248.59 86.2619ZM237.699 84.7341C238.061 84.7341 238.408 84.7341 238.707 84.7341L248.236 85.3956C248.655 82.7477 249.287 80.1378 250.126 77.5915C251.504 73.0398 252.803 68.74 251.52 63.2039C251.375 62.3308 251.03 61.5031 250.512 60.7863C249.871 60.1219 249.075 59.6268 248.196 59.3451C243.342 57.5023 237.962 57.6124 233.187 59.6523C232.377 59.9517 231.648 60.4372 231.06 61.0698C230.06 62.314 230.218 64.1489 230.462 65.9208C230.478 66.0251 230.452 66.1315 230.39 66.217C230.328 66.3024 230.235 66.3601 230.131 66.3775C229.737 66.4405 229.344 66.4878 228.981 66.5271C227.17 66.7161 225.831 66.85 225.414 70.1496C224.815 74.5754 227.083 82.1118 230.304 84.0648L230.383 84.112C231.659 84.8365 234.21 84.7735 236.266 84.7263L237.699 84.7341Z" fill="#231F20"/>
<path d="M229.423 88.1639L250.441 87.5333C252.177 87.4813 253.541 86.0323 253.489 84.2969L253.477 83.8795C253.425 82.1442 251.976 80.7796 250.24 80.8317L229.222 81.4622C227.487 81.5143 226.122 82.9633 226.174 84.6986L226.187 85.116C226.239 86.8514 227.688 88.2159 229.423 88.1639Z" fill="white"/>
<path d="M229.281 89.1126C228.361 89.1091 227.48 88.7493 226.82 88.109C226.161 87.4687 225.775 86.5978 225.745 85.6791V85.2618C225.715 84.321 226.06 83.4069 226.704 82.7203C227.347 82.0337 228.237 81.6307 229.178 81.5999L250.189 80.9305C250.655 80.9134 251.119 80.9888 251.556 81.1524C251.993 81.3159 252.392 81.5644 252.732 81.8834C253.416 82.5281 253.818 83.4168 253.851 84.3561V84.7814C253.866 85.2464 253.79 85.71 253.626 86.1456C253.463 86.5811 253.215 86.98 252.896 87.3195C252.578 87.659 252.196 87.9323 251.772 88.1238C251.348 88.3153 250.89 88.4212 250.425 88.4354L229.407 89.1126H229.281ZM229.186 82.411C228.462 82.4357 227.777 82.7462 227.281 83.2745C226.785 83.8028 226.519 84.506 226.54 85.2303V85.6555C226.551 86.0144 226.633 86.3676 226.781 86.6949C226.929 87.0222 227.139 87.3171 227.401 87.5628C227.663 87.8086 227.971 88.0003 228.307 88.127C228.643 88.2538 229 88.3131 229.359 88.3015L250.378 87.6243C250.737 87.6141 251.09 87.533 251.417 87.3854C251.745 87.2379 252.039 87.027 252.285 86.7648C252.53 86.5027 252.721 86.1945 252.846 85.8581C252.972 85.5217 253.03 85.1638 253.016 84.805V84.3876C252.991 83.6635 252.681 82.9786 252.152 82.4827C251.624 81.9869 250.921 81.7204 250.197 81.7416L229.178 82.411H229.186Z" fill="#231F20"/>
<path d="M120.346 111.171C123.808 111.171 126.614 109.386 126.614 107.186C126.614 104.985 123.808 103.201 120.346 103.201C116.884 103.201 114.077 104.985 114.077 107.186C114.077 109.386 116.884 111.171 120.346 111.171Z" fill="white"/>
<path d="M190.315 111.171C193.777 111.171 196.584 109.386 196.584 107.186C196.584 104.985 193.777 103.201 190.315 103.201C186.853 103.201 184.047 104.985 184.047 107.186C184.047 109.386 186.853 111.171 190.315 111.171Z" fill="white"/>
<path d="M230.06 66.0074C230.06 66.0074 243.613 64.0938 242.243 67.8265C240.873 71.5593 231.163 73.5517 231.163 73.5517C231.163 73.5517 239.825 71.1891 241.857 77.7018" fill="white"/>
<path d="M241.857 78.1034C241.771 78.1038 241.687 78.0765 241.617 78.0254C241.548 77.9744 241.497 77.9023 241.471 77.8199C240.684 75.2999 238.754 73.8824 235.73 73.591C234.44 73.485 233.141 73.5592 231.872 73.8115L231.242 73.9533C231.144 73.9617 231.046 73.9348 230.967 73.8775C230.887 73.8201 230.831 73.7362 230.808 73.6408C230.785 73.5455 230.797 73.4451 230.842 73.358C230.887 73.2708 230.962 73.2026 231.053 73.1658L231.572 73.0555C233.541 72.5909 240.762 70.693 241.865 67.6926C241.933 67.5687 241.961 67.4272 241.947 67.2867C241.933 67.1462 241.877 67.0132 241.786 66.9051C240.644 65.4955 234.021 65.842 230.115 66.3933C230.06 66.4092 230.002 66.4131 229.945 66.4047C229.888 66.3962 229.834 66.3757 229.786 66.3443C229.737 66.313 229.696 66.2717 229.665 66.2232C229.634 66.1747 229.614 66.1201 229.606 66.0631C229.598 66.0061 229.603 65.9481 229.619 65.8929C229.635 65.8377 229.664 65.7868 229.701 65.7434C229.739 65.7 229.786 65.6653 229.838 65.6416C229.891 65.6178 229.948 65.6056 230.005 65.6058C231.084 65.4483 240.613 64.1804 242.416 66.3933C242.593 66.611 242.706 66.8731 242.743 67.1509C242.781 67.4287 242.741 67.7115 242.629 67.9683C241.841 70.189 238.384 71.7876 235.494 72.772C238.116 72.9531 241.133 73.9926 242.243 77.5758C242.26 77.6264 242.267 77.68 242.263 77.7333C242.259 77.7866 242.245 77.8387 242.221 77.8863C242.196 77.934 242.163 77.9764 242.122 78.011C242.081 78.0455 242.034 78.0716 241.983 78.0876C241.942 78.1001 241.9 78.1054 241.857 78.1034Z" fill="#231F20"/>
<path d="M80.3801 69.8819C82.5772 66.4248 81.0101 58.408 78.561 54.7934C76.1118 51.1788 74.4738 52.6593 72.198 53.3444C71.6625 51.6355 70.9143 49.7691 69.3 49.0131C68.4341 48.675 67.4988 48.5533 66.5752 48.6588C61.2884 48.9722 56.3264 51.3136 52.7231 55.195C52.0077 55.8865 51.4793 56.7481 51.1875 57.6993C51.0247 58.6344 51.0841 59.5948 51.3607 60.5028C53.4555 69.2676 59.85 72.457 64.4568 79.3319L73.017 74.3076C74.9306 73.1815 79.0728 71.7719 80.325 69.9213L80.3801 69.8819Z" fill="white"/>
<path d="M64.4569 79.765C64.3898 79.7655 64.3237 79.7492 64.2645 79.7176C64.2054 79.6859 64.1551 79.64 64.1183 79.5839C62.5386 77.3163 60.7654 75.19 58.8184 73.2288C55.4794 69.6772 52.3373 66.3303 50.9434 60.6288C50.6541 59.661 50.5948 58.639 50.7701 57.6442C51.0765 56.61 51.6432 55.6718 52.416 54.9194C56.0864 50.954 61.1495 48.5636 66.5438 48.2493C67.5325 48.1443 68.5321 48.2794 69.4575 48.643C71.0876 49.4305 71.82 51.0922 72.4579 52.8247L73.1273 52.5805C74.9543 51.9033 76.671 51.2575 78.8996 54.5414C81.2621 58.0458 83.1206 66.2909 80.7266 70.0709L80.6636 70.1733C79.7186 71.5672 77.3955 72.6539 75.3401 73.6225C74.5526 74.0005 73.7651 74.3549 73.2218 74.6778L64.6616 79.7099C64.6 79.7474 64.529 79.7666 64.4569 79.765ZM67.2289 49.0525H66.591C61.4068 49.3596 56.5421 51.6594 53.0145 55.4707C52.3453 56.1248 51.8523 56.9374 51.5813 57.8332C51.4417 58.7014 51.5009 59.5899 51.7545 60.4319C53.0775 65.9444 56.1488 69.2283 59.409 72.6933C61.2937 74.5898 63.0213 76.6362 64.575 78.8122L72.8123 73.9769C73.395 73.6383 74.1746 73.2682 75.0015 72.8823C76.86 72.0082 79.1674 70.9293 79.9943 69.7323L80.0415 69.6535C82.0575 66.5035 80.7266 58.7073 78.2224 55.0139C76.3875 52.2419 75.1275 52.7065 73.4186 53.3444C73.0643 53.4783 72.6941 53.6122 72.3161 53.7303C72.2148 53.7604 72.1058 53.7501 72.0119 53.7017C71.918 53.6533 71.8464 53.5704 71.8121 53.4704C71.2451 51.7694 70.5679 50.0527 69.1189 49.4069C68.5219 49.1528 67.8775 49.0293 67.2289 49.0447V49.0525Z" fill="#231F20"/>
<path d="M80.1161 67.2743L61.007 76.0272C59.4293 76.7499 58.7361 78.6147 59.4588 80.1924L59.6326 80.5719C60.3553 82.1496 62.2201 82.8427 63.7978 82.1201L82.9069 73.3672C84.4847 72.6445 85.1778 70.7797 84.4551 69.202L84.2813 68.8225C83.5587 67.2448 81.6938 66.5517 80.1161 67.2743Z" fill="white"/>
<path d="M62.496 82.8048C62.0736 82.803 61.6549 82.7256 61.2596 82.5764C60.8215 82.4175 60.4195 82.1727 60.0774 81.8562C59.7352 81.5398 59.4598 81.1581 59.2673 80.7337L59.094 80.3478C58.8971 79.923 58.7861 79.4634 58.7675 78.9956C58.7488 78.5277 58.8229 78.0608 58.9853 77.6216C59.1478 77.1825 59.3955 76.7798 59.7142 76.4368C60.0329 76.0937 60.4163 75.8171 60.8423 75.6228L79.9549 66.8894C80.3799 66.6935 80.8393 66.5834 81.3069 66.5653C81.7745 66.5472 82.241 66.6214 82.6799 66.7838C83.1187 66.9462 83.5213 67.1935 83.8645 67.5116C84.2076 67.8297 84.4847 68.2124 84.6799 68.6377L84.8531 69.0235C85.0501 69.4483 85.161 69.9079 85.1797 70.3757C85.1983 70.8436 85.1243 71.3105 84.9618 71.7497C84.7993 72.1888 84.5516 72.5915 84.2329 72.9345C83.9143 73.2776 83.5309 73.5542 83.1049 73.7485L63.9686 82.4819C63.5063 82.693 63.0043 82.803 62.496 82.8048ZM81.396 67.3855C81.005 67.386 80.6186 67.4692 80.262 67.6297L61.1809 76.3867C60.8546 76.5361 60.5609 76.7483 60.3167 77.0112C60.0724 77.2741 59.8823 77.5826 59.7573 77.919C59.6322 78.2554 59.5747 78.6131 59.5879 78.9717C59.6011 79.3304 59.6848 79.6829 59.8343 80.0092L60.0075 80.395C60.1569 80.7213 60.3692 81.015 60.6321 81.2592C60.895 81.5035 61.2035 81.6936 61.5399 81.8186C61.8762 81.9437 62.234 82.0012 62.5926 81.988C62.9512 81.9748 63.3037 81.8911 63.63 81.7416L82.7505 72.9847C83.4066 72.6798 83.9156 72.1279 84.1664 71.4493C84.4172 70.7707 84.3895 70.0204 84.0893 69.3622L83.916 68.9763C83.6972 68.5006 83.3464 68.0978 82.9052 67.8157C82.464 67.5337 81.9511 67.3844 81.4275 67.3855H81.396Z" fill="#231F20"/>
<path d="M72.198 53.3444C72.198 53.3444 59.22 57.6678 62.1023 60.4319C64.9845 63.196 74.5763 60.6209 74.5763 60.6209C74.5763 60.6209 65.7641 62.3219 66.8509 69.0944" fill="white"/>
<path d="M66.8509 69.4566C66.7549 69.4563 66.662 69.4221 66.5886 69.3602C66.5152 69.2983 66.4659 69.2126 66.4493 69.118C65.8508 65.4089 68.0873 63.133 70.3868 61.81C67.3628 62.2116 63.5749 62.3061 61.8582 60.6839C61.6458 60.5056 61.486 60.2729 61.3958 60.0107C61.3056 59.7485 61.2885 59.4667 61.3463 59.1955C61.9684 56.392 71.0719 53.2893 72.1035 52.9428C72.2059 52.9103 72.3169 52.9194 72.4126 52.968C72.5084 53.0166 72.5812 53.1009 72.6154 53.2026C72.6327 53.2528 72.6399 53.3059 72.6366 53.3588C72.6333 53.4118 72.6195 53.4635 72.5961 53.5111C72.5727 53.5587 72.54 53.6012 72.5001 53.6361C72.4602 53.671 72.4137 53.6977 72.3634 53.7145C68.6149 54.9588 62.5354 57.5969 62.1259 59.3688C62.0965 59.5033 62.1069 59.6434 62.1559 59.772C62.2048 59.9007 62.2902 60.0123 62.4015 60.0933C64.764 62.2983 72.0327 60.7705 73.9935 60.3059C74.3085 60.2193 74.4975 60.1799 74.5133 60.1799C74.6164 60.1609 74.7229 60.1821 74.8108 60.2393C74.8987 60.2964 74.9613 60.3851 74.9858 60.487C74.9987 60.5377 75.0013 60.5905 74.9936 60.6422C74.9859 60.6939 74.968 60.7436 74.9409 60.7883C74.9137 60.833 74.878 60.8719 74.8356 60.9027C74.7933 60.9334 74.7453 60.9554 74.6944 60.9674L74.0723 61.1249C72.8239 61.4651 71.6287 61.9766 70.5207 62.6448C67.9377 64.2198 66.843 66.3775 67.2683 68.992C67.2842 69.0984 67.2576 69.2068 67.1942 69.2938C67.1308 69.3807 67.0358 69.4392 66.9296 69.4566H66.8509Z" fill="#231F20"/>
<path d="M220.76 155.57C220.76 155.57 206.42 158.932 203.128 171.855L222.028 197.898L247.661 162.13L228.761 168.595L220.76 155.57Z" fill="white"/>
<path d="M222.004 198.307C221.94 198.307 221.877 198.291 221.82 198.263C221.763 198.234 221.712 198.193 221.673 198.142L202.773 172.092C202.738 172.043 202.715 171.988 202.704 171.929C202.693 171.871 202.695 171.81 202.71 171.753C206.026 158.743 220.5 155.215 220.65 155.176C220.732 155.156 220.818 155.162 220.896 155.195C220.974 155.228 221.04 155.284 221.083 155.357L228.863 168.107L247.488 161.744C247.569 161.714 247.659 161.711 247.742 161.736C247.825 161.761 247.898 161.813 247.95 161.883C248.002 161.953 248.029 162.038 248.028 162.125C248.027 162.212 247.998 162.297 247.944 162.366L222.311 198.134C222.256 198.244 222.13 198.347 222.004 198.307ZM203.569 171.769L222.004 197.205L246.566 162.925L228.84 168.981C228.752 169.012 228.656 169.012 228.568 168.98C228.481 168.949 228.407 168.888 228.359 168.808L220.571 156.042C218.578 156.594 206.585 160.374 203.569 171.769Z" fill="#231F20"/>
<path d="M223.051 198.867C216.058 193.354 223.744 184.692 231.084 174.895C236.36 167.886 246.141 159.31 250.874 163.02C256.315 167.288 231.36 205.387 223.051 198.867Z" fill="#D1D3D4"/>
<path d="M225.288 200.024C224.388 200.039 223.509 199.744 222.8 199.189C216.082 193.921 222.311 185.755 228.903 177.139L230.738 174.619C235.045 168.902 242.038 162.429 247.228 161.752C247.902 161.631 248.594 161.651 249.261 161.809C249.927 161.968 250.554 162.262 251.102 162.673C251.89 163.303 252.189 164.508 251.937 166.256C250.772 174.486 237.053 195.717 227.769 199.449C226.986 199.796 226.144 199.991 225.288 200.024ZM223.304 198.552C224.343 199.339 225.753 199.426 227.493 198.725C235.817 195.378 249.929 174.801 251.157 166.17C251.299 165.185 251.323 163.886 250.63 163.342C250.168 162.994 249.64 162.744 249.078 162.609C248.515 162.473 247.931 162.455 247.362 162.555C242.637 163.177 235.746 169.343 231.407 175.108L229.548 177.565C222.933 186.227 217.216 193.74 223.304 198.52V198.552Z" fill="#231F20"/>
<path d="M104.123 188.18L101.288 168.493C92.9028 170.721 84.2755 171.911 75.6 172.036C75.6 172.036 71.0403 203.009 73.1272 203.111C75.2141 203.214 82.8922 189.928 82.8922 189.928C82.8922 189.928 89.4127 192.732 104.123 188.18Z" fill="white"/>
<path d="M73.1193 203.513C73.0271 203.507 72.9372 203.482 72.8557 203.438C72.7742 203.395 72.703 203.334 72.6468 203.261C70.9931 201.261 74.4896 176.848 75.2062 171.981C75.2178 171.885 75.2644 171.797 75.337 171.733C75.4096 171.669 75.5032 171.634 75.6 171.635C84.2446 171.505 92.8414 170.326 101.202 168.123C101.258 168.104 101.318 168.099 101.376 168.107C101.435 168.116 101.491 168.137 101.54 168.17C101.59 168.2 101.632 168.242 101.663 168.291C101.695 168.34 101.715 168.395 101.721 168.453L104.556 188.141C104.569 188.237 104.547 188.334 104.495 188.416C104.443 188.498 104.365 188.559 104.273 188.59C91.2633 192.63 84.5853 190.952 83.0812 190.448C81.0495 193.882 75.2535 203.513 73.1193 203.513ZM75.9228 172.438C73.9147 186.204 72.3003 201.261 73.206 202.702C74.466 202.481 78.8838 196.016 82.5142 189.732C82.564 189.645 82.6433 189.58 82.7375 189.548C82.8317 189.517 82.9343 189.52 83.0261 189.558C83.097 189.558 89.5545 192.212 103.666 187.897L100.95 168.997C92.7677 171.104 84.3698 172.258 75.9228 172.438Z" fill="#231F20"/>
<path d="M101.288 168.508C101.288 168.508 98.5557 171.178 98.5557 179.628C98.5557 184.188 101.706 190.11 104.123 188.18C106.541 186.251 107.738 168.501 101.288 168.508Z" fill="#231F20"/>
<path d="M103.163 188.968C102.837 188.962 102.517 188.884 102.225 188.739C100.146 187.739 98.1698 183.313 98.1698 179.628C98.1698 171.107 100.91 168.335 101.028 168.217C101.107 168.143 101.212 168.104 101.32 168.107C103.17 168.107 104.612 169.422 105.494 171.91C107.313 177.076 106.36 186.92 104.399 188.495C104.055 188.794 103.618 188.961 103.163 188.968ZM101.493 168.918C101.005 169.524 98.9888 172.454 98.9888 179.628C98.9888 182.983 100.769 187.133 102.58 188.007C102.786 188.121 103.022 188.168 103.256 188.143C103.49 188.118 103.71 188.021 103.887 187.865C105.289 186.739 106.604 177.51 104.722 172.178C103.95 170.099 102.879 169.005 101.469 168.918H101.493Z" fill="#231F20"/>
<path d="M196.812 53.7382C196.732 53.7374 196.654 53.7132 196.588 53.6686C196.521 53.6241 196.47 53.5611 196.439 53.4874C196.408 53.4137 196.399 53.3326 196.413 53.254C196.428 53.1754 196.465 53.1028 196.521 53.0452L213.846 35.2004C213.883 35.1621 213.928 35.1316 213.977 35.1108C214.026 35.09 214.08 35.0793 214.133 35.0793C214.187 35.0793 214.24 35.09 214.289 35.1108C214.338 35.1316 214.383 35.1621 214.421 35.2004C214.496 35.277 214.538 35.3803 214.538 35.4878C214.538 35.5954 214.496 35.6987 214.421 35.7753L197.096 53.62C197.059 53.6577 197.014 53.6876 196.966 53.7079C196.917 53.7282 196.865 53.7385 196.812 53.7382Z" fill="#D1D3D4"/>
<path d="M159.429 44.8158C159.325 44.8138 159.225 44.772 159.15 44.6988C159.076 44.6255 159.032 44.5265 159.028 44.422L158.13 22.6319C158.128 22.5781 158.136 22.5244 158.155 22.4739C158.174 22.4235 158.202 22.3771 158.239 22.3376C158.275 22.2981 158.319 22.2662 158.368 22.2438C158.417 22.2213 158.47 22.2087 158.524 22.2067C158.63 22.2065 158.733 22.2472 158.811 22.3204C158.888 22.3937 158.935 22.4939 158.941 22.6004L159.862 44.3905C159.865 44.4986 159.825 44.6033 159.751 44.6826C159.678 44.7619 159.577 44.8097 159.469 44.8158H159.429Z" fill="#D1D3D4"/>
<path d="M109.305 60.7233C109.249 60.7243 109.194 60.7136 109.142 60.6919C109.091 60.6702 109.044 60.638 109.006 60.5973L87.507 37.2322C87.4634 37.1944 87.4282 37.1479 87.4037 37.0956C87.3793 37.0433 87.3662 36.9865 87.3653 36.9288C87.3644 36.8711 87.3757 36.8138 87.3984 36.7608C87.4212 36.7078 87.4549 36.6601 87.4973 36.6211C87.5398 36.582 87.59 36.5523 87.6447 36.534C87.6994 36.5156 87.7574 36.5091 87.8148 36.5147C87.8723 36.5204 87.9278 36.5381 87.9779 36.5667C88.028 36.5954 88.0715 36.6343 88.1055 36.6809L109.604 60.046C109.68 60.1226 109.722 60.2259 109.722 60.3335C109.722 60.441 109.68 60.5443 109.604 60.6209C109.564 60.6573 109.517 60.6852 109.465 60.7028C109.414 60.7204 109.359 60.7274 109.305 60.7233Z" fill="#D1D3D4"/>
<path d="M34.8705 128.684C34.7849 128.66 34.7097 128.608 34.6561 128.537C34.6025 128.466 34.5735 128.38 34.5735 128.291C34.5735 128.202 34.6025 128.115 34.6561 128.044C34.7097 127.973 34.7849 127.921 34.8705 127.897L87.7984 124.432C87.8579 124.411 87.9214 124.404 87.984 124.412C88.0466 124.419 88.1067 124.441 88.1594 124.476C88.2121 124.51 88.2562 124.557 88.2881 124.611C88.3199 124.666 88.3388 124.727 88.3432 124.79C88.3476 124.852 88.3374 124.916 88.3135 124.974C88.2895 125.032 88.2523 125.084 88.2049 125.126C88.1575 125.167 88.1011 125.198 88.0402 125.214C87.9792 125.23 87.9153 125.232 87.8535 125.22L34.9256 128.684H34.8705Z" fill="#D1D3D4"/>
<path d="M62.9055 161.657C62.8264 161.658 62.7488 161.636 62.6828 161.592C62.6168 161.549 62.5654 161.486 62.5354 161.413C62.4931 161.314 62.4918 161.202 62.5316 161.102C62.5714 161.001 62.6492 160.921 62.748 160.878L84.483 151.735C84.5787 151.709 84.6806 151.718 84.7698 151.762C84.8589 151.805 84.9293 151.879 84.9678 151.971C85.0062 152.062 85.0103 152.165 84.979 152.259C84.9478 152.353 84.8835 152.432 84.798 152.483L63.063 161.626C63.0136 161.648 62.9597 161.659 62.9055 161.657Z" fill="#D1D3D4"/>
<path d="M232.746 126.125C232.652 126.125 232.561 126.091 232.489 126.031C232.417 125.971 232.368 125.887 232.352 125.794C232.342 125.742 232.342 125.688 232.353 125.636C232.363 125.584 232.384 125.535 232.414 125.491C232.444 125.447 232.483 125.409 232.528 125.38C232.572 125.351 232.622 125.331 232.675 125.322L286.351 114.911C286.403 114.9 286.456 114.899 286.508 114.909C286.56 114.918 286.61 114.939 286.654 114.968C286.698 114.997 286.736 115.035 286.765 115.08C286.794 115.124 286.814 115.174 286.823 115.226C286.844 115.333 286.822 115.443 286.761 115.533C286.701 115.623 286.607 115.686 286.5 115.707L232.824 126.117L232.746 126.125Z" fill="#D1D3D4"/>
<path d="M269.561 155.979H269.459L235.872 147.199C235.815 147.191 235.76 147.171 235.711 147.14C235.662 147.109 235.621 147.068 235.589 147.02C235.557 146.972 235.535 146.918 235.525 146.861C235.516 146.804 235.518 146.746 235.533 146.69C235.547 146.634 235.574 146.582 235.61 146.537C235.646 146.492 235.691 146.455 235.742 146.429C235.794 146.402 235.85 146.387 235.908 146.384C235.965 146.381 236.023 146.39 236.077 146.411L269.664 155.192C269.748 155.225 269.82 155.286 269.866 155.365C269.912 155.443 269.931 155.535 269.919 155.625C269.907 155.716 269.866 155.8 269.801 155.864C269.736 155.928 269.652 155.969 269.561 155.979Z" fill="#D1D3D4"/>
<path d="M129.811 44.8158C129.727 44.8163 129.645 44.7898 129.577 44.7402C129.509 44.6906 129.459 44.6205 129.433 44.5401L126.236 35.6178C126.217 35.5677 126.209 35.5143 126.211 35.4609C126.213 35.4074 126.226 35.355 126.249 35.3065C126.272 35.2581 126.304 35.2147 126.344 35.1789C126.383 35.1431 126.43 35.1156 126.48 35.098C126.582 35.0645 126.692 35.0711 126.789 35.1165C126.886 35.1619 126.961 35.2427 127 35.3421L130.197 44.2724C130.233 44.3737 130.227 44.485 130.182 44.5822C130.136 44.6795 130.054 44.7548 129.953 44.7921L129.811 44.8158Z" fill="#D1D3D4"/>
<path d="M73.773 103.611C73.7211 103.622 73.6674 103.622 73.6155 103.611L57.5978 96.9483C57.4995 96.9065 57.4214 96.8279 57.3802 96.7293C57.339 96.6308 57.3379 96.52 57.3773 96.4206C57.4207 96.3218 57.5007 96.2435 57.6006 96.2024C57.7004 96.1613 57.8123 96.1605 57.9128 96.2001L73.9305 102.862C74.0288 102.904 74.1069 102.983 74.1481 103.081C74.1893 103.18 74.1904 103.291 74.151 103.39C74.1146 103.458 74.06 103.515 73.9932 103.554C73.9265 103.593 73.8503 103.612 73.773 103.611Z" fill="#D1D3D4"/>
</svg>
