<svg width="25" height="25" viewBox="0 0 25 25" fill="none" xmlns="http://www.w3.org/2000/svg">
<path fill-rule="evenodd" clip-rule="evenodd" d="M17.3632 0.657871C17.7965 0.22436 18.3809 0 18.9507 0C19.5198 0 20.0959 0.202866 20.5508 0.657871L23.4933 3.60165C24.374 4.48277 24.374 5.90826 23.4933 6.78938L21.1921 9.09157L20.4848 9.79913L20.4642 9.77848L20.1686 10.074L6.3817 23.861L6.08881 24.1538H5.6746H1H0V23.1538V18.4792V18.065L0.292893 17.7721L14.0798 3.9852L14.3767 3.68837L14.3553 3.66702L15.062 2.96006L17.3632 0.657871ZM18.8588 2.01919C18.8255 2.03273 18.798 2.05142 18.7777 2.07178L17.1831 3.66702L20.4848 6.9701L22.0788 5.37547C22.1789 5.27533 22.1789 5.11571 22.0788 5.01557L19.1362 2.07178C19.1068 2.04229 19.0806 2.02708 19.0572 2.01781C19.0325 2.00805 18.9982 2 18.9507 2C18.9253 2 18.8927 2.0054 18.8588 2.01919ZM2 18.8935V22.1538H5.26038L18.0473 9.3669L14.7869 6.10652L2 18.8935ZM5.67108 19.0816L15.3634 9.8508L14.3289 8.76459L4.6366 17.9954L5.67108 19.0816Z" fill="#666666"/>
</svg>
