<svg width="21" height="25" viewBox="0 0 21 25" fill="none" xmlns="http://www.w3.org/2000/svg">
<path fill-rule="evenodd" clip-rule="evenodd" d="M10.2391 0C5.046 9.11953e-06 1.8561 2.60821 0.603819 5.96277C-0.615134 9.22804 0.0416588 13.1225 2.30112 15.6644L2.30111 15.6644L2.30479 15.6685L9.49533 23.6685L10.2595 24.5187L11.0006 23.6482L17.8033 15.6561C20.046 13.1264 20.7791 9.24979 19.6515 5.98595C18.4888 2.6205 15.3885 -9.05988e-06 10.2391 0ZM2.47752 6.66224C1.50361 9.27109 2.05502 12.3754 3.79419 14.3337L3.79594 14.3356L10.2186 21.4813L16.287 14.3518L16.294 14.3437L16.3011 14.3356C18.0527 12.3651 18.662 9.24664 17.7611 6.63904C16.8941 4.12948 14.5896 1.99999 10.2391 2C5.82379 2.00001 3.41842 4.14181 2.47752 6.66224ZM11.9998 10C11.9998 11.1046 11.1043 12 9.99976 12C8.89519 12 7.99976 11.1046 7.99976 10C7.99976 8.89543 8.89519 8 9.99976 8C11.1043 8 11.9998 8.89543 11.9998 10ZM13.9998 10C13.9998 12.2091 12.2089 14 9.99976 14C7.79062 14 5.99976 12.2091 5.99976 10C5.99976 7.79086 7.79062 6 9.99976 6C12.2089 6 13.9998 7.79086 13.9998 10Z" fill="#666666"/>
</svg>
